WhiteRabbitx.sfdir
StartChar: numbersign
Encoding: 35 35 13
Width: 1200
GlyphClass: 1
Flags: W
LayerCount: 2
Fore
SplineSet
800 0 m 256,0,1
 760 0 760 0 730 30 c 128,-1,2
 700 60 700 60 700 100 c 2,3,-1
 700 400 l 1,4,-1
 500 400 l 1,5,-1
 500 100 l 2,6,7
 500 60 500 60 470 30 c 128,-1,8
 440 0 440 0 400 0 c 256,9,10
 360 0 360 0 330 30 c 128,-1,11
 300 60 300 60 300 100 c 2,12,-1
 300 400 l 1,13,-1
 200 400 l 2,14,15
 160 400 160 400 130 430 c 128,-1,16
 100 460 100 460 100 500 c 128,-1,17
 100 540 100 540 130 570 c 128,-1,18
 160 600 160 600 200 600 c 2,19,-1
 300 600 l 1,20,-1
 300 800 l 1,21,-1
 200 800 l 2,22,23
 160 800 160 800 130 830 c 128,-1,24
 100 860 100 860 100 900 c 128,-1,25
 100 940 100 940 130 970 c 128,-1,26
 160 1000 160 1000 200 1000 c 2,27,-1
 300 1000 l 1,28,-1
 300 1300 l 2,29,30
 300 1340 300 1340 330 1370 c 128,-1,31
 360 1400 360 1400 400 1400 c 128,-1,32
 440 1400 440 1400 470 1370 c 128,-1,33
 500 1340 500 1340 500 1300 c 2,34,-1
 500 1000 l 1,35,-1
 700 1000 l 1,36,-1
 700 1300 l 2,37,38
 700 1340 700 1340 730 1370 c 128,-1,39
 760 1400 760 1400 800 1400 c 128,-1,40
 840 1400 840 1400 870 1370 c 128,-1,41
 900 1340 900 1340 900 1300 c 2,42,-1
 900 1000 l 1,43,-1
 1000 1000 l 2,44,45
 1040 1000 1040 1000 1070 970 c 128,-1,46
 1100 940 1100 940 1100 900 c 128,-1,47
 1100 860 1100 860 1070 830 c 128,-1,48
 1040 800 1040 800 1000 800 c 2,49,-1
 900 800 l 1,50,-1
 900 600 l 1,51,-1
 1000 600 l 2,52,53
 1040 600 1040 600 1070 570 c 128,-1,54
 1100 540 1100 540 1100 500 c 128,-1,55
 1100 460 1100 460 1070 430 c 128,-1,56
 1040 400 1040 400 1000 400 c 2,57,-1
 900 400 l 1,58,-1
 900 100 l 2,59,60
 900 60 900 60 870 30 c 128,-1,61
 840 0 840 0 800 0 c 256,0,1
500 800 m 1,62,-1
 500 600 l 1,63,-1
 700 600 l 1,64,-1
 700 800 l 1,65,-1
 500 800 l 1,62,-1
EndSplineSet
EndChar
StartChar: dollar
Encoding: 36 36 14
Width: 1200
GlyphClass: 1
Flags: W
LayerCount: 2
Fore
SplineSet
600 0 m 256,0,1
 560 0 560 0 530 30 c 128,-1,2
 500 60 500 60 500 100 c 2,3,-1
 500 200 l 1,4,-1
 200 200 l 2,5,6
 160 200 160 200 130 230 c 128,-1,7
 100 260 100 260 100 300 c 128,-1,8
 100 340 100 340 130 370 c 128,-1,9
 160 400 160 400 200 400 c 2,10,-1
 500 400 l 1,11,-1
 500 600 l 1,12,-1
 400 600 l 2,13,14
 280 600 280 600 190 690 c 128,-1,15
 100 780 100 780 100 900 c 128,-1,16
 100 1020 100 1020 190 1110 c 128,-1,17
 280 1200 280 1200 400 1200 c 2,18,-1
 500 1200 l 1,19,-1
 500 1300 l 2,20,21
 500 1340 500 1340 530 1370 c 128,-1,22
 560 1400 560 1400 600 1400 c 128,-1,23
 640 1400 640 1400 670 1370 c 128,-1,24
 700 1340 700 1340 700 1300 c 2,25,-1
 700 1200 l 1,26,-1
 1000 1200 l 2,27,28
 1040 1200 1040 1200 1070 1170 c 128,-1,29
 1100 1140 1100 1140 1100 1100 c 128,-1,30
 1100 1060 1100 1060 1070 1030 c 128,-1,31
 1040 1000 1040 1000 1000 1000 c 2,32,-1
 700 1000 l 1,33,-1
 700 800 l 1,34,-1
 800 800 l 2,35,36
 920 800 920 800 1010 710 c 128,-1,37
 1100 620 1100 620 1100 500 c 128,-1,38
 1100 380 1100 380 1010 290 c 128,-1,39
 920 200 920 200 800 200 c 2,40,-1
 700 200 l 1,41,-1
 700 100 l 2,42,43
 700 60 700 60 670 30 c 128,-1,44
 640 0 640 0 600 0 c 256,0,1
300 900 m 256,45,46
 300 860 300 860 330 830 c 128,-1,47
 360 800 360 800 400 800 c 2,48,-1
 500 800 l 1,49,-1
 500 1000 l 1,50,-1
 400 1000 l 2,51,52
 360 1000 360 1000 330 970 c 128,-1,53
 300 940 300 940 300 900 c 256,45,46
800 600 m 2,54,-1
 700 600 l 1,55,-1
 700 400 l 1,56,-1
 800 400 l 2,57,58
 840 400 840 400 870 430 c 128,-1,59
 900 460 900 460 900 500 c 128,-1,60
 900 540 900 540 870 570 c 128,-1,61
 840 600 840 600 800 600 c 2,54,-1
EndSplineSet
EndChar
StartChar: percent
Encoding: 37 37 15
Width: 1200
GlyphClass: 1
Flags: W
LayerCount: 2
Fore
SplineSet
800 0 m 2,0,1
 760 0 760 0 730 30 c 128,-1,2
 700 60 700 60 700 100 c 2,3,-1
 700 300 l 2,4,5
 700 340 700 340 730 370 c 128,-1,6
 760 400 760 400 800 400 c 2,7,-1
 1000 400 l 2,8,9
 1040 400 1040 400 1070 370 c 128,-1,10
 1100 340 1100 340 1100 300 c 2,11,-1
 1100 100 l 2,12,13
 1100 60 1100 60 1070 30 c 128,-1,14
 1040 0 1040 0 1000 0 c 2,15,-1
 800 0 l 2,0,1
200 1000 m 2,16,17
 160 1000 160 1000 130 1030 c 128,-1,18
 100 1060 100 1060 100 1100 c 2,19,-1
 100 1300 l 2,20,21
 100 1340 100 1340 130 1370 c 128,-1,22
 160 1400 160 1400 200 1400 c 2,23,-1
 400 1400 l 2,24,25
 440 1400 440 1400 470 1370 c 128,-1,26
 500 1340 500 1340 500 1300 c 2,27,-1
 500 1100 l 2,28,29
 500 1060 500 1060 470 1030 c 128,-1,30
 440 1000 440 1000 400 1000 c 2,31,-1
 200 1000 l 2,16,17
200 0 m 256,32,33
 160 0 160 0 130 30 c 128,-1,34
 100 60 100 60 100 100 c 2,35,-1
 100 300 l 2,36,37
 100 340 100 340 130 370 c 2,38,-1
 900 1144 l 1,39,-1
 900 1300 l 2,40,41
 900 1340 900 1340 930 1370 c 128,-1,42
 960 1400 960 1400 1000 1400 c 128,-1,43
 1040 1400 1040 1400 1070 1370 c 128,-1,44
 1100 1340 1100 1340 1100 1300 c 2,45,-1
 1100 1100 l 2,46,47
 1100 1060 1100 1060 1070 1030 c 2,48,-1
 300 264 l 1,49,-1
 300 100 l 2,50,51
 300 60 300 60 270 30 c 128,-1,52
 240 0 240 0 200 0 c 256,32,33
EndSplineSet
EndChar
StartChar: quotesingle
Encoding: 39 39 11
Width: 1200
GlyphClass: 1
Flags: W
LayerCount: 2
Fore
SplineSet
500 1300 m 2,0,1
 500 1340 500 1340 530 1370 c 128,-1,2
 560 1400 560 1400 600 1400 c 128,-1,3
 640 1400 640 1400 670 1370 c 128,-1,4
 700 1340 700 1340 700 1300 c 2,5,-1
 700 1100 l 2,6,7
 700 1060 700 1060 670 1030 c 128,-1,8
 640 1000 640 1000 600 1000 c 128,-1,9
 560 1000 560 1000 530 1030 c 128,-1,10
 500 1060 500 1060 500 1100 c 2,11,-1
 500 1300 l 2,0,1
EndSplineSet
EndChar
StartChar: parenleft
Encoding: 40 40 17
Width: 1200
GlyphClass: 1
Flags: W
LayerCount: 2
Fore
SplineSet
800 0 m 0,0,1
 680 0 680 0 590 90 c 128,-1,2
 500 180 500 180 500 300 c 2,3,-1
 500 1100 l 2,4,5
 500 1220 500 1220 590 1310 c 128,-1,6
 680 1400 680 1400 800 1400 c 0,7,8
 840 1400 840 1400 870 1370 c 128,-1,9
 900 1340 900 1340 900 1300 c 128,-1,10
 900 1260 900 1260 870 1230 c 128,-1,11
 840 1200 840 1200 800 1200 c 256,12,13
 760 1200 760 1200 730 1170 c 128,-1,14
 700 1140 700 1140 700 1100 c 2,15,-1
 700 300 l 2,16,17
 700 260 700 260 730 230 c 128,-1,18
 760 200 760 200 800 200 c 128,-1,19
 840 200 840 200 870 170 c 128,-1,20
 900 140 900 140 900 100 c 128,-1,21
 900 60 900 60 870 30 c 128,-1,22
 840 0 840 0 800 0 c 0,0,1
EndSplineSet
EndChar
StartChar: parenright
Encoding: 41 41 18
Width: 1200
GlyphClass: 1
Flags: W
LayerCount: 2
Fore
SplineSet
400 0 m 0,0,1
 360 0 360 0 330 30 c 128,-1,2
 300 60 300 60 300 100 c 128,-1,3
 300 140 300 140 330 170 c 128,-1,4
 360 200 360 200 400 200 c 128,-1,5
 440 200 440 200 470 230 c 128,-1,6
 500 260 500 260 500 300 c 2,7,-1
 500 1100 l 2,8,9
 500 1140 500 1140 470 1170 c 128,-1,10
 440 1200 440 1200 400 1200 c 256,11,12
 360 1200 360 1200 330 1230 c 128,-1,13
 300 1260 300 1260 300 1300 c 128,-1,14
 300 1340 300 1340 330 1370 c 128,-1,15
 360 1400 360 1400 400 1400 c 0,16,17
 520 1400 520 1400 610 1310 c 128,-1,18
 700 1220 700 1220 700 1100 c 2,19,-1
 700 300 l 2,20,21
 700 180 700 180 610 90 c 128,-1,22
 520 0 520 0 400 0 c 0,0,1
EndSplineSet
EndChar
StartChar: asterisk
Encoding: 42 42 19
Width: 1200
GlyphClass: 1
Flags: W
LayerCount: 2
Fore
SplineSet
400 400 m 256,0,1
 360 400 360 400 330 430 c 128,-1,2
 300 460 300 460 300 500 c 128,-1,3
 300 540 300 540 330 570 c 1,4,-1
 452 800 l 1,5,-1
 200 800 l 2,6,7
 160 800 160 800 130 830 c 128,-1,8
 100 860 100 860 100 900 c 128,-1,9
 100 940 100 940 130 970 c 128,-1,10
 160 1000 160 1000 200 1000 c 2,11,-1
 452 1000 l 1,12,-1
 330 1230 l 1,13,14
 300 1260 300 1260 300 1300 c 128,-1,15
 300 1340 300 1340 330 1370 c 128,-1,16
 360 1400 360 1400 400 1400 c 128,-1,17
 440 1400 440 1400 470 1370 c 1,18,-1
 600 1108 l 1,19,-1
 730 1370 l 1,20,21
 760 1400 760 1400 800 1400 c 128,-1,22
 840 1400 840 1400 870 1370 c 128,-1,23
 900 1340 900 1340 900 1300 c 128,-1,24
 900 1260 900 1260 870 1230 c 1,25,-1
 748 1000 l 1,26,-1
 1000 1000 l 2,27,28
 1040 1000 1040 1000 1070 970 c 128,-1,29
 1100 940 1100 940 1100 900 c 128,-1,30
 1100 860 1100 860 1070 830 c 128,-1,31
 1040 800 1040 800 1000 800 c 2,32,-1
 748 800 l 1,33,-1
 870 570 l 1,34,35
 900 540 900 540 900 500 c 128,-1,36
 900 460 900 460 870 430 c 128,-1,37
 840 400 840 400 800 400 c 256,38,39
 760 400 760 400 730 430 c 1,40,-1
 600 692 l 1,41,-1
 470 430 l 1,42,43
 440 400 440 400 400 400 c 256,0,1
EndSplineSet
EndChar
StartChar: plus
Encoding: 43 43 20
Width: 1200
GlyphClass: 1
Flags: W
LayerCount: 2
Fore
SplineSet
600 200 m 256,0,1
 560 200 560 200 530 230 c 128,-1,2
 500 260 500 260 500 300 c 2,3,-1
 500 600 l 1,4,-1
 200 600 l 2,5,6
 160 600 160 600 130 630 c 128,-1,7
 100 660 100 660 100 700 c 128,-1,8
 100 740 100 740 130 770 c 128,-1,9
 160 800 160 800 200 800 c 2,10,-1
 500 800 l 1,11,-1
 500 1100 l 2,12,13
 500 1140 500 1140 530 1170 c 128,-1,14
 560 1200 560 1200 600 1200 c 128,-1,15
 640 1200 640 1200 670 1170 c 128,-1,16
 700 1140 700 1140 700 1100 c 2,17,-1
 700 800 l 1,18,-1
 1000 800 l 2,19,20
 1040 800 1040 800 1070 770 c 128,-1,21
 1100 740 1100 740 1100 700 c 128,-1,22
 1100 660 1100 660 1070 630 c 128,-1,23
 1040 600 1040 600 1000 600 c 2,24,-1
 700 600 l 1,25,-1
 700 300 l 2,26,27
 700 260 700 260 670 230 c 128,-1,28
 640 200 640 200 600 200 c 256,0,1
EndSplineSet
EndChar
StartChar: comma
Encoding: 44 44 4
Width: 1200
GlyphClass: 1
Flags: W
LayerCount: 2
Fore
SplineSet
400 400 m 2,0,-1
 600 400 l 2,1,2
 640 400 640 400 670 370 c 128,-1,3
 700 340 700 340 700 300 c 2,4,-1
 700 100 l 2,5,6
 700 60 700 60 670 30 c 2,7,-1
 470 -170 l 2,8,9
 440 -200 440 -200 400 -200 c 256,10,11
 360 -200 360 -200 330 -170 c 128,-1,12
 300 -140 300 -140 300 -100 c 2,13,-1
 300 300 l 2,14,15
 300 340 300 340 330 370 c 128,-1,16
 360 400 360 400 400 400 c 2,0,-1
EndSplineSet
EndChar
StartChar: hyphen
Encoding: 45 45 21
Width: 1200
GlyphClass: 1
Flags: W
LayerCount: 2
Fore
SplineSet
200 600 m 2,0,1
 160 600 160 600 130 630 c 128,-1,2
 100 660 100 660 100 700 c 128,-1,3
 100 740 100 740 130 770 c 128,-1,4
 160 800 160 800 200 800 c 2,5,-1
 1000 800 l 2,6,7
 1040 800 1040 800 1070 770 c 128,-1,8
 1100 740 1100 740 1100 700 c 128,-1,9
 1100 660 1100 660 1070 630 c 128,-1,10
 1040 600 1040 600 1000 600 c 2,11,-1
 200 600 l 2,0,1
EndSplineSet
EndChar
StartChar: period
Encoding: 46 46 3
Width: 1200
GlyphClass: 1
Flags: W
LayerCount: 2
Fore
SplineSet
400 400 m 2,0,-1
 600 400 l 2,1,2
 640 400 640 400 670 370 c 128,-1,3
 700 340 700 340 700 300 c 2,4,-1
 700 100 l 2,5,6
 700 60 700 60 670 30 c 128,-1,7
 640 0 640 0 600 0 c 2,8,-1
 400 0 l 2,9,10
 360 0 360 0 330 30 c 128,-1,11
 300 60 300 60 300 100 c 2,12,-1
 300 300 l 2,13,14
 300 340 300 340 330 370 c 128,-1,15
 360 400 360 400 400 400 c 2,0,-1
EndSplineSet
EndChar
StartChar: slash
Encoding: 47 47 22
Width: 1200
GlyphClass: 1
Flags: WO
LayerCount: 2
Fore
SplineSet
98 300 m 25,0,-1
 300 264 l 5,1,-1
 1070 1030 l 2,2,3
 1100 1060 1100 1060 1100 1100 c 1026,4,-1
1100 1098 m 25,5,-1
 900 1144 l 1,6,-1
 130 370 l 2,7,8
 100 340 100 340 100 300 c 1026,9,-1
EndSplineSet
EndChar
StartChar: zero
Encoding: 48 48 24
Width: 1200
GlyphClass: 1
Flags: WO
LayerCount: 2
Fore
SplineSet
400 0 m 2,0,1
 280 0 280 0 190 90 c 128,-1,2
 100 180 100 180 100 300 c 2,3,-1
 100 1100 l 2,4,5
 100 1220 100 1220 190 1310 c 128,-1,6
 280 1400 280 1400 400 1400 c 2,7,-1
 800 1400 l 2,8,9
 920 1400 920 1400 1010 1310 c 128,-1,10
 1100 1220 1100 1220 1100 1100 c 2,11,-1
 1100 300 l 2,12,13
 1100 180 1100 180 1010 90 c 128,-1,14
 920 0 920 0 800 0 c 2,15,-1
 400 0 l 2,0,1
300 300 m 1,16,17
 300 260 300 260 330 230 c 128,-1,18
 360 200 360 200 400 200 c 2,19,-1
 800 200 l 2,20,21
 840 200 840 200 870 230 c 128,-1,22
 900 260 900 260 900 300 c 2,23,-1
 900 840 l 5,24,-1
 300 300 l 1,16,17
300 560 m 1,25,-1
 900 1100 l 1,26,27
 900 1140 900 1140 870 1170 c 128,-1,28
 840 1200 840 1200 800 1200 c 2,29,-1
 400 1200 l 2,30,31
 360 1200 360 1200 330 1170 c 128,-1,32
 300 1140 300 1140 300 1100 c 2,33,-1
 300 560 l 1,25,-1
EndSplineSet
EndChar
StartChar: one
Encoding: 49 49 25
Width: 1200
GlyphClass: 1
Flags: W
LayerCount: 2
Fore
SplineSet
400 1000 m 256,0,1
 360 1000 360 1000 330 1030 c 128,-1,2
 300 1060 300 1060 300 1100 c 128,-1,3
 300 1140 300 1140 330 1170 c 2,4,-1
 530 1370 l 2,5,6
 560 1400 560 1400 600 1400 c 128,-1,7
 640 1400 640 1400 670 1370 c 128,-1,8
 700 1340 700 1340 700 1300 c 2,9,-1
 700 200 l 1,10,-1
 800 200 l 2,11,12
 840 200 840 200 870 170 c 128,-1,13
 900 140 900 140 900 100 c 128,-1,14
 900 60 900 60 870 30 c 128,-1,15
 840 0 840 0 800 0 c 2,16,-1
 400 0 l 2,17,18
 360 0 360 0 330 30 c 128,-1,19
 300 60 300 60 300 100 c 128,-1,20
 300 140 300 140 330 170 c 128,-1,21
 360 200 360 200 400 200 c 2,22,-1
 500 200 l 1,23,-1
 500 1064 l 1,24,-1
 470 1030 l 2,25,26
 440 1000 440 1000 400 1000 c 256,0,1
EndSplineSet
EndChar
StartChar: two
Encoding: 50 50 26
Width: 1200
GlyphClass: 1
Flags: W
LayerCount: 2
Fore
SplineSet
200 1000 m 256,0,1
 160 1000 160 1000 130 1030 c 128,-1,2
 100 1060 100 1060 100 1100 c 0,3,4
 100 1220 100 1220 190 1310 c 128,-1,5
 280 1400 280 1400 400 1400 c 2,6,-1
 800 1400 l 2,7,8
 920 1400 920 1400 1010 1310 c 128,-1,9
 1100 1220 1100 1220 1100 1100 c 2,10,-1
 1100 900 l 2,11,12
 1100 860 1100 860 1070 830 c 2,13,-1
 436 200 l 1,14,-1
 1000 200 l 2,15,16
 1040 200 1040 200 1070 170 c 128,-1,17
 1100 140 1100 140 1100 100 c 128,-1,18
 1100 60 1100 60 1070 30 c 128,-1,19
 1040 0 1040 0 1000 0 c 2,20,-1
 200 0 l 2,21,22
 160 0 160 0 130 30 c 128,-1,23
 100 60 100 60 100 100 c 128,-1,24
 100 140 100 140 130 170 c 2,25,-1
 900 944 l 1,26,-1
 900 1100 l 2,27,28
 900 1140 900 1140 870 1170 c 128,-1,29
 840 1200 840 1200 800 1200 c 2,30,-1
 400 1200 l 2,31,32
 360 1200 360 1200 330 1170 c 128,-1,33
 300 1140 300 1140 300 1100 c 256,34,35
 300 1060 300 1060 270 1030 c 128,-1,36
 240 1000 240 1000 200 1000 c 256,0,1
EndSplineSet
EndChar
StartChar: three
Encoding: 51 51 27
Width: 1200
GlyphClass: 1
Flags: W
LayerCount: 2
Fore
SplineSet
800 0 m 2,0,-1
 400 0 l 2,1,2
 280 0 280 0 190 90 c 128,-1,3
 100 180 100 180 100 300 c 0,4,5
 100 340 100 340 130 370 c 128,-1,6
 160 400 160 400 200 400 c 128,-1,7
 240 400 240 400 270 370 c 128,-1,8
 300 340 300 340 300 300 c 256,9,10
 300 260 300 260 330 230 c 128,-1,11
 360 200 360 200 400 200 c 2,12,-1
 800 200 l 2,13,14
 840 200 840 200 870 230 c 128,-1,15
 900 260 900 260 900 300 c 2,16,-1
 900 500 l 2,17,18
 900 540 900 540 870 570 c 128,-1,19
 840 600 840 600 800 600 c 2,20,-1
 600 600 l 2,21,22
 560 600 560 600 530 630 c 128,-1,23
 500 660 500 660 500 700 c 128,-1,24
 500 740 500 740 530 770 c 128,-1,25
 560 800 560 800 600 800 c 2,26,-1
 800 800 l 2,27,28
 840 800 840 800 870 830 c 128,-1,29
 900 860 900 860 900 900 c 2,30,-1
 900 1100 l 2,31,32
 900 1140 900 1140 870 1170 c 128,-1,33
 840 1200 840 1200 800 1200 c 2,34,-1
 400 1200 l 2,35,36
 360 1200 360 1200 330 1170 c 128,-1,37
 300 1140 300 1140 300 1100 c 256,38,39
 300 1060 300 1060 270 1030 c 128,-1,40
 240 1000 240 1000 200 1000 c 256,41,42
 160 1000 160 1000 130 1030 c 128,-1,43
 100 1060 100 1060 100 1100 c 0,44,45
 100 1220 100 1220 190 1310 c 128,-1,46
 280 1400 280 1400 400 1400 c 2,47,-1
 800 1400 l 2,48,49
 920 1400 920 1400 1010 1310 c 128,-1,50
 1100 1220 1100 1220 1100 1100 c 2,51,-1
 1100 900 l 2,52,53
 1100 780 1100 780 1010 690 c 1,54,55
 1100 620 1100 620 1100 500 c 2,56,-1
 1100 300 l 2,57,58
 1100 180 1100 180 1010 90 c 128,-1,59
 920 0 920 0 800 0 c 2,0,-1
EndSplineSet
EndChar
StartChar: six
Encoding: 54 54 30
Width: 1200
GlyphClass: 1
Flags: W
LayerCount: 2
Fore
SplineSet
400 0 m 2,0,1
 280 0 280 0 190 90 c 128,-1,2
 100 180 100 180 100 300 c 2,3,-1
 100 1100 l 2,4,5
 100 1220 100 1220 190 1310 c 128,-1,6
 280 1400 280 1400 400 1400 c 2,7,-1
 800 1400 l 2,8,9
 840 1400 840 1400 870 1370 c 128,-1,10
 900 1340 900 1340 900 1300 c 128,-1,11
 900 1260 900 1260 870 1230 c 128,-1,12
 840 1200 840 1200 800 1200 c 2,13,-1
 400 1200 l 2,14,15
 360 1200 360 1200 330 1170 c 128,-1,16
 300 1140 300 1140 300 1100 c 2,17,-1
 300 800 l 1,18,-1
 800 800 l 2,19,20
 920 800 920 800 1010 720 c 128,-1,21
 1100 640 1100 640 1100 500 c 2,22,-1
 1100 300 l 2,23,24
 1100 180 1100 180 1010 90 c 128,-1,25
 920 0 920 0 800 0 c 2,26,-1
 400 0 l 2,0,1
300 600 m 1,27,-1
 300 300 l 2,28,29
 300 260 300 260 330 230 c 128,-1,30
 360 200 360 200 400 200 c 2,31,-1
 800 200 l 2,32,33
 840 200 840 200 870 230 c 128,-1,34
 900 260 900 260 900 300 c 2,35,-1
 900 500 l 2,36,37
 900 540 900 540 870 570 c 128,-1,38
 840 600 840 600 800 600 c 2,39,-1
 300 600 l 1,27,-1
EndSplineSet
EndChar
StartChar: seven
Encoding: 55 55 31
Width: 1200
GlyphClass: 1
Flags: W
LayerCount: 2
Fore
SplineSet
200 0 m 256,0,1
 160 0 160 0 130 30 c 128,-1,2
 100 60 100 60 100 100 c 128,-1,3
 100 140 100 140 130 170 c 2,4,-1
 900 944 l 1,5,-1
 900 1200 l 1,6,-1
 200 1200 l 2,7,8
 160 1200 160 1200 130 1230 c 128,-1,9
 100 1260 100 1260 100 1300 c 128,-1,10
 100 1340 100 1340 130 1370 c 128,-1,11
 160 1400 160 1400 200 1400 c 2,12,-1
 1000 1400 l 2,13,14
 1040 1400 1040 1400 1070 1370 c 128,-1,15
 1100 1340 1100 1340 1100 1300 c 2,16,-1
 1100 900 l 2,17,18
 1100 860 1100 860 1070 830 c 2,19,-1
 270 30 l 2,20,21
 240 0 240 0 200 0 c 256,0,1
EndSplineSet
EndChar
StartChar: eight
Encoding: 56 56 32
Width: 1200
GlyphClass: 1
Flags: W
LayerCount: 2
Fore
SplineSet
100 300 m 2,0,-1
 100 500 l 2,1,2
 100 620 100 620 190 710 c 1,3,4
 100 780 100 780 100 900 c 2,5,-1
 100 1100 l 2,6,7
 100 1220 100 1220 190 1310 c 128,-1,8
 280 1400 280 1400 400 1400 c 2,9,-1
 800 1400 l 2,10,11
 920 1400 920 1400 1010 1310 c 128,-1,12
 1100 1220 1100 1220 1100 1100 c 2,13,-1
 1100 900 l 2,14,15
 1100 780 1100 780 1010 690 c 1,16,17
 1100 620 1100 620 1100 500 c 2,18,-1
 1100 300 l 2,19,20
 1100 180 1100 180 1010 90 c 128,-1,21
 920 0 920 0 800 0 c 2,22,-1
 400 0 l 2,23,24
 280 0 280 0 190 90 c 128,-1,25
 100 180 100 180 100 300 c 2,0,-1
800 800 m 2,26,27
 840 800 840 800 870 830 c 128,-1,28
 900 860 900 860 900 900 c 2,29,-1
 900 1100 l 2,30,31
 900 1140 900 1140 870 1170 c 128,-1,32
 840 1200 840 1200 800 1200 c 2,33,-1
 400 1200 l 2,34,35
 360 1200 360 1200 330 1170 c 128,-1,36
 300 1140 300 1140 300 1100 c 2,37,-1
 300 900 l 2,38,39
 300 860 300 860 330 830 c 128,-1,40
 360 800 360 800 400 800 c 2,41,-1
 800 800 l 2,26,27
900 500 m 2,42,43
 900 540 900 540 870 570 c 128,-1,44
 840 600 840 600 800 600 c 2,45,-1
 400 600 l 2,46,47
 360 600 360 600 330 570 c 128,-1,48
 300 540 300 540 300 500 c 2,49,-1
 300 300 l 2,50,51
 300 260 300 260 330 230 c 128,-1,52
 360 200 360 200 400 200 c 2,53,-1
 800 200 l 2,54,55
 840 200 840 200 870 230 c 128,-1,56
 900 260 900 260 900 300 c 2,57,-1
 900 500 l 2,42,43
EndSplineSet
EndChar
StartChar: nine
Encoding: 57 57 33
Width: 1200
GlyphClass: 1
Flags: W
LayerCount: 2
Fore
SplineSet
800 1400 m 2,0,1
 920 1400 920 1400 1010 1310 c 128,-1,2
 1100 1220 1100 1220 1100 1100 c 2,3,-1
 1100 300 l 2,4,5
 1100 180 1100 180 1010 90 c 128,-1,6
 920 0 920 0 800 0 c 2,7,-1
 200 0 l 2,8,9
 160 0 160 0 130 30 c 128,-1,10
 100 60 100 60 100 100 c 128,-1,11
 100 140 100 140 130 170 c 128,-1,12
 160 200 160 200 200 200 c 2,13,-1
 800 200 l 2,14,15
 840 200 840 200 870 230 c 128,-1,16
 900 260 900 260 900 300 c 2,17,-1
 900 600 l 1,18,-1
 400 600 l 2,19,20
 280 600 280 600 190 680 c 128,-1,21
 100 760 100 760 100 900 c 2,22,-1
 100 1100 l 2,23,24
 100 1220 100 1220 190 1310 c 128,-1,25
 280 1400 280 1400 400 1400 c 2,26,-1
 800 1400 l 2,0,1
900 800 m 1,27,-1
 900 1100 l 2,28,29
 900 1140 900 1140 870 1170 c 128,-1,30
 840 1200 840 1200 800 1200 c 2,31,-1
 400 1200 l 2,32,33
 360 1200 360 1200 330 1170 c 128,-1,34
 300 1140 300 1140 300 1100 c 2,35,-1
 300 900 l 2,36,37
 300 860 300 860 330 830 c 128,-1,38
 360 800 360 800 400 800 c 2,39,-1
 900 800 l 1,27,-1
EndSplineSet
EndChar
StartChar: colon
Encoding: 58 58 5
Width: 1200
GlyphClass: 1
Flags: W
LayerCount: 2
Fore
SplineSet
400 1200 m 2,0,-1
 600 1200 l 2,1,2
 640 1200 640 1200 670 1170 c 128,-1,3
 700 1140 700 1140 700 1100 c 2,4,-1
 700 900 l 2,5,6
 700 860 700 860 670 830 c 128,-1,7
 640 800 640 800 600 800 c 2,8,-1
 400 800 l 2,9,10
 360 800 360 800 330 830 c 128,-1,11
 300 860 300 860 300 900 c 2,12,-1
 300 1100 l 2,13,14
 300 1140 300 1140 330 1170 c 128,-1,15
 360 1200 360 1200 400 1200 c 2,0,-1
400 400 m 2,16,-1
 600 400 l 2,17,18
 640 400 640 400 670 370 c 128,-1,19
 700 340 700 340 700 300 c 2,20,-1
 700 100 l 2,21,22
 700 60 700 60 670 30 c 128,-1,23
 640 0 640 0 600 0 c 2,24,-1
 400 0 l 2,25,26
 360 0 360 0 330 30 c 128,-1,27
 300 60 300 60 300 100 c 2,28,-1
 300 300 l 2,29,30
 300 340 300 340 330 370 c 128,-1,31
 360 400 360 400 400 400 c 2,16,-1
EndSplineSet
EndChar
StartChar: less
Encoding: 60 60 34
Width: 1200
GlyphClass: 1
Flags: W
LayerCount: 2
Fore
SplineSet
336 700 m 1,0,-1
 870 170 l 2,1,2
 900 140 900 140 900 100 c 128,-1,3
 900 60 900 60 870 30 c 128,-1,4
 840 0 840 0 800 0 c 256,5,6
 760 0 760 0 730 30 c 2,7,-1
 130 630 l 2,8,9
 100 660 100 660 100 700 c 128,-1,10
 100 740 100 740 130 770 c 2,11,-1
 730 1370 l 2,12,13
 760 1400 760 1400 800 1400 c 128,-1,14
 840 1400 840 1400 870 1370 c 128,-1,15
 900 1340 900 1340 900 1300 c 128,-1,16
 900 1260 900 1260 870 1230 c 2,17,-1
 336 700 l 1,0,-1
EndSplineSet
EndChar
StartChar: equal
Encoding: 61 61 36
Width: 1200
GlyphClass: 1
Flags: W
LayerCount: 2
Fore
SplineSet
200 800 m 2,0,1
 160 800 160 800 130 830 c 128,-1,2
 100 860 100 860 100 900 c 128,-1,3
 100 940 100 940 130 970 c 128,-1,4
 160 1000 160 1000 200 1000 c 2,5,-1
 1000 1000 l 2,6,7
 1040 1000 1040 1000 1070 970 c 128,-1,8
 1100 940 1100 940 1100 900 c 128,-1,9
 1100 860 1100 860 1070 830 c 128,-1,10
 1040 800 1040 800 1000 800 c 2,11,-1
 200 800 l 2,0,1
200 400 m 2,12,13
 160 400 160 400 130 430 c 128,-1,14
 100 460 100 460 100 500 c 128,-1,15
 100 540 100 540 130 570 c 128,-1,16
 160 600 160 600 200 600 c 2,17,-1
 1000 600 l 2,18,19
 1040 600 1040 600 1070 570 c 128,-1,20
 1100 540 1100 540 1100 500 c 128,-1,21
 1100 460 1100 460 1070 430 c 128,-1,22
 1040 400 1040 400 1000 400 c 2,23,-1
 200 400 l 2,12,13
EndSplineSet
EndChar
StartChar: question
Encoding: 63 63 37
Width: 1200
GlyphClass: 1
Flags: W
LayerCount: 2
Fore
SplineSet
600 0 m 256,0,1
 560 0 560 0 530 30 c 128,-1,2
 500 60 500 60 500 100 c 128,-1,3
 500 140 500 140 530 170 c 128,-1,4
 560 200 560 200 600 200 c 128,-1,5
 640 200 640 200 670 170 c 128,-1,6
 700 140 700 140 700 100 c 128,-1,7
 700 60 700 60 670 30 c 128,-1,8
 640 0 640 0 600 0 c 256,0,1
600 400 m 256,9,10
 560 400 560 400 530 430 c 128,-1,11
 500 460 500 460 500 500 c 128,-1,12
 500 540 500 540 530 570 c 2,13,-1
 900 944 l 1,14,-1
 900 1100 l 2,15,16
 900 1140 900 1140 870 1170 c 128,-1,17
 840 1200 840 1200 800 1200 c 2,18,-1
 400 1200 l 2,19,20
 360 1200 360 1200 330 1170 c 128,-1,21
 300 1140 300 1140 300 1100 c 256,22,23
 300 1060 300 1060 270 1030 c 128,-1,24
 240 1000 240 1000 200 1000 c 128,-1,25
 160 1000 160 1000 130 1030 c 128,-1,26
 100 1060 100 1060 100 1100 c 0,27,28
 100 1220 100 1220 190 1310 c 128,-1,29
 280 1400 280 1400 400 1400 c 2,30,-1
 800 1400 l 2,31,32
 920 1400 920 1400 1010 1310 c 128,-1,33
 1100 1220 1100 1220 1100 1100 c 2,34,-1
 1100 900 l 2,35,36
 1100 860 1100 860 1070 830 c 2,37,-1
 670 430 l 2,38,39
 640 400 640 400 600 400 c 256,9,10
EndSplineSet
EndChar
StartChar: C
Encoding: 67 67 50
Width: 1200
GlyphClass: 1
Flags: W
LayerCount: 2
Fore
SplineSet
400 0 m 2,0,1
 280 0 280 0 190 90 c 128,-1,2
 100 180 100 180 100 300 c 2,3,-1
 100 1100 l 2,4,5
 100 1220 100 1220 190 1310 c 128,-1,6
 280 1400 280 1400 400 1400 c 2,7,-1
 800 1400 l 2,8,9
 920 1400 920 1400 1010 1310 c 128,-1,10
 1100 1220 1100 1220 1100 1100 c 0,11,12
 1100 1060 1100 1060 1070 1030 c 128,-1,13
 1040 1000 1040 1000 1000 1000 c 256,14,15
 960 1000 960 1000 930 1030 c 128,-1,16
 900 1060 900 1060 900 1100 c 256,17,18
 900 1140 900 1140 870 1170 c 128,-1,19
 840 1200 840 1200 800 1200 c 2,20,-1
 400 1200 l 2,21,22
 360 1200 360 1200 330 1170 c 128,-1,23
 300 1140 300 1140 300 1100 c 2,24,-1
 300 300 l 2,25,26
 300 260 300 260 330 230 c 128,-1,27
 360 200 360 200 400 200 c 2,28,-1
 800 200 l 2,29,30
 840 200 840 200 870 230 c 128,-1,31
 900 260 900 260 900 300 c 256,32,33
 900 340 900 340 930 370 c 128,-1,34
 960 400 960 400 1000 400 c 128,-1,35
 1040 400 1040 400 1070 370 c 128,-1,36
 1100 340 1100 340 1100 300 c 0,37,38
 1100 180 1100 180 1010 90 c 128,-1,39
 920 0 920 0 800 0 c 2,40,-1
 400 0 l 2,0,1
EndSplineSet
EndChar
StartChar: D
Encoding: 68 68 51
Width: 1200
GlyphClass: 1
Flags: W
LayerCount: 2
Fore
SplineSet
200 0 m 2,0,1
 160 0 160 0 130 30 c 128,-1,2
 100 60 100 60 100 100 c 2,3,-1
 100 1300 l 2,4,5
 100 1340 100 1340 130 1370 c 128,-1,6
 160 1400 160 1400 200 1400 c 2,7,-1
 800 1400 l 2,8,9
 920 1400 920 1400 1010 1310 c 128,-1,10
 1100 1220 1100 1220 1100 1100 c 2,11,-1
 1100 300 l 2,12,13
 1100 180 1100 180 1010 90 c 128,-1,14
 920 0 920 0 800 0 c 2,15,-1
 200 0 l 2,0,1
900 300 m 2,16,-1
 900 1100 l 2,17,18
 900 1140 900 1140 870 1170 c 128,-1,19
 840 1200 840 1200 800 1200 c 2,20,-1
 300 1200 l 1,21,-1
 300 200 l 1,22,-1
 800 200 l 2,23,24
 840 200 840 200 870 230 c 128,-1,25
 900 260 900 260 900 300 c 2,16,-1
EndSplineSet
EndChar
StartChar: E
Encoding: 69 69 52
Width: 1200
GlyphClass: 1
Flags: W
LayerCount: 2
Fore
SplineSet
800 600 m 2,0,-1
 300 600 l 1,1,-1
 300 200 l 1,2,-1
 1000 200 l 2,3,4
 1040 200 1040 200 1070 170 c 128,-1,5
 1100 140 1100 140 1100 100 c 128,-1,6
 1100 60 1100 60 1070 30 c 128,-1,7
 1040 0 1040 0 1000 0 c 2,8,-1
 200 0 l 2,9,10
 160 0 160 0 130 30 c 128,-1,11
 100 60 100 60 100 100 c 2,12,-1
 100 1300 l 2,13,14
 100 1340 100 1340 130 1370 c 128,-1,15
 160 1400 160 1400 200 1400 c 2,16,-1
 1000 1400 l 2,17,18
 1040 1400 1040 1400 1070 1370 c 128,-1,19
 1100 1340 1100 1340 1100 1300 c 128,-1,20
 1100 1260 1100 1260 1070 1230 c 128,-1,21
 1040 1200 1040 1200 1000 1200 c 2,22,-1
 300 1200 l 1,23,-1
 300 800 l 1,24,-1
 800 800 l 2,25,26
 840 800 840 800 870 770 c 128,-1,27
 900 740 900 740 900 700 c 128,-1,28
 900 660 900 660 870 630 c 128,-1,29
 840 600 840 600 800 600 c 2,0,-1
EndSplineSet
EndChar
StartChar: F
Encoding: 70 70 53
Width: 1200
GlyphClass: 1
Flags: W
LayerCount: 2
Fore
SplineSet
800 600 m 2,0,-1
 300 600 l 1,1,-1
 300 200 l 2,2,3
 300 60 300 60 270 30 c 128,-1,4
 240 0 240 0 200 0 c 128,-1,5
 160 0 160 0 130 30 c 128,-1,6
 100 60 100 60 100 100 c 2,7,-1
 100 1300 l 2,8,9
 100 1340 100 1340 130 1370 c 128,-1,10
 160 1400 160 1400 200 1400 c 2,11,-1
 1000 1400 l 2,12,13
 1040 1400 1040 1400 1070 1370 c 128,-1,14
 1100 1340 1100 1340 1100 1300 c 128,-1,15
 1100 1260 1100 1260 1070 1230 c 128,-1,16
 1040 1200 1040 1200 1000 1200 c 2,17,-1
 300 1200 l 1,18,-1
 300 800 l 1,19,-1
 800 800 l 2,20,21
 840 800 840 800 870 770 c 128,-1,22
 900 740 900 740 900 700 c 128,-1,23
 900 660 900 660 870 630 c 128,-1,24
 840 600 840 600 800 600 c 2,0,-1
EndSplineSet
EndChar
StartChar: H
Encoding: 72 72 55
Width: 1200
GlyphClass: 1
Flags: W
LayerCount: 2
Fore
SplineSet
1100 1300 m 2,0,-1
 1100 100 l 2,1,2
 1100 60 1100 60 1070 30 c 128,-1,3
 1040 0 1040 0 1000 0 c 128,-1,4
 960 0 960 0 930 30 c 128,-1,5
 900 60 900 60 900 100 c 2,6,-1
 900 600 l 1,7,-1
 300 600 l 1,8,-1
 300 100 l 2,9,10
 300 60 300 60 270 30 c 128,-1,11
 240 0 240 0 200 0 c 128,-1,12
 160 0 160 0 130 30 c 128,-1,13
 100 60 100 60 100 100 c 2,14,-1
 100 1300 l 2,15,16
 100 1340 100 1340 130 1370 c 128,-1,17
 160 1400 160 1400 200 1400 c 128,-1,18
 240 1400 240 1400 270 1370 c 128,-1,19
 300 1340 300 1340 300 1300 c 2,20,-1
 300 800 l 1,21,-1
 900 800 l 1,22,-1
 900 1300 l 2,23,24
 900 1340 900 1340 930 1370 c 128,-1,25
 960 1400 960 1400 1000 1400 c 128,-1,26
 1040 1400 1040 1400 1070 1370 c 128,-1,27
 1100 1340 1100 1340 1100 1300 c 2,0,-1
EndSplineSet
EndChar
StartChar: I
Encoding: 73 73 56
Width: 1200
GlyphClass: 1
Flags: W
LayerCount: 2
Fore
SplineSet
400 0 m 2,0,1
 360 0 360 0 330 30 c 128,-1,2
 300 60 300 60 300 100 c 128,-1,3
 300 140 300 140 330 170 c 128,-1,4
 360 200 360 200 400 200 c 2,5,-1
 500 200 l 1,6,-1
 500 1200 l 1,7,-1
 400 1200 l 2,8,9
 360 1200 360 1200 330 1230 c 128,-1,10
 300 1260 300 1260 300 1300 c 128,-1,11
 300 1340 300 1340 330 1370 c 128,-1,12
 360 1400 360 1400 400 1400 c 2,13,-1
 800 1400 l 2,14,15
 840 1400 840 1400 870 1370 c 128,-1,16
 900 1340 900 1340 900 1300 c 128,-1,17
 900 1260 900 1260 870 1230 c 128,-1,18
 840 1200 840 1200 800 1200 c 2,19,-1
 700 1200 l 1,20,-1
 700 200 l 1,21,-1
 800 200 l 2,22,23
 840 200 840 200 870 170 c 128,-1,24
 900 140 900 140 900 100 c 128,-1,25
 900 60 900 60 870 30 c 128,-1,26
 840 0 840 0 800 0 c 2,27,-1
 400 0 l 2,0,1
EndSplineSet
EndChar
StartChar: K
Encoding: 75 75 58
Width: 1200
GlyphClass: 1
Flags: W
LayerCount: 2
Fore
SplineSet
536 700 m 1,0,-1
 1070 170 l 2,1,2
 1100 140 1100 140 1100 100 c 128,-1,3
 1100 60 1100 60 1070 30 c 128,-1,4
 1040 0 1040 0 1000 0 c 128,-1,5
 960 0 960 0 930 30 c 2,6,-1
 400 564 l 1,7,-1
 300 464 l 1,8,-1
 300 100 l 2,9,10
 300 60 300 60 270 30 c 128,-1,11
 240 0 240 0 200 0 c 128,-1,12
 160 0 160 0 130 30 c 128,-1,13
 100 60 100 60 100 100 c 2,14,-1
 100 1300 l 2,15,16
 100 1340 100 1340 130 1370 c 128,-1,17
 160 1400 160 1400 200 1400 c 128,-1,18
 240 1400 240 1400 270 1370 c 128,-1,19
 300 1340 300 1340 300 1300 c 2,20,-1
 300 744 l 1,21,-1
 930 1370 l 2,22,23
 960 1400 960 1400 1000 1400 c 128,-1,24
 1040 1400 1040 1400 1070 1370 c 128,-1,25
 1100 1340 1100 1340 1100 1300 c 128,-1,26
 1100 1260 1100 1260 1070 1230 c 2,27,-1
 536 700 l 1,0,-1
EndSplineSet
EndChar
StartChar: L
Encoding: 76 76 59
Width: 1200
GlyphClass: 1
Flags: W
LayerCount: 2
Fore
SplineSet
300 200 m 1,0,-1
 1000 200 l 2,1,2
 1040 200 1040 200 1070 170 c 128,-1,3
 1100 140 1100 140 1100 100 c 128,-1,4
 1100 60 1100 60 1070 30 c 128,-1,5
 1040 0 1040 0 1000 0 c 2,6,-1
 200 0 l 2,7,8
 160 0 160 0 130 30 c 128,-1,9
 100 60 100 60 100 100 c 2,10,-1
 100 1300 l 2,11,12
 100 1340 100 1340 130 1370 c 128,-1,13
 160 1400 160 1400 200 1400 c 128,-1,14
 240 1400 240 1400 270 1370 c 128,-1,15
 300 1340 300 1340 300 1300 c 2,16,-1
 300 200 l 1,0,-1
EndSplineSet
EndChar
StartChar: M
Encoding: 77 77 60
Width: 1200
GlyphClass: 1
Flags: W
LayerCount: 2
Fore
SplineSet
200 0 m 256,0,1
 160 0 160 0 130 30 c 128,-1,2
 100 60 100 60 100 100 c 2,3,-1
 100 1300 l 2,4,5
 100 1340 100 1340 130 1370 c 128,-1,6
 160 1400 160 1400 200 1400 c 128,-1,7
 240 1400 240 1400 270 1370 c 2,8,-1
 600 1040 l 1,9,-1
 930 1370 l 2,10,11
 960 1400 960 1400 1000 1400 c 128,-1,12
 1040 1400 1040 1400 1070 1370 c 128,-1,13
 1100 1340 1100 1340 1100 1300 c 2,14,-1
 1100 100 l 2,15,16
 1100 60 1100 60 1070 30 c 128,-1,17
 1040 0 1040 0 1000 0 c 128,-1,18
 960 0 960 0 930 30 c 128,-1,19
 900 60 900 60 900 100 c 2,20,-1
 900 1064 l 1,21,-1
 670 830 l 2,22,23
 640 800 640 800 600 800 c 128,-1,24
 560 800 560 800 530 830 c 2,25,-1
 300 1060 l 1,26,-1
 300 100 l 2,27,28
 300 60 300 60 270 30 c 128,-1,29
 240 0 240 0 200 0 c 256,0,1
EndSplineSet
EndChar
StartChar: N
Encoding: 78 78 61
Width: 1200
GlyphClass: 1
Flags: W
LayerCount: 2
Fore
SplineSet
200 0 m 256,0,1
 160 0 160 0 130 30 c 128,-1,2
 100 60 100 60 100 100 c 2,3,-1
 100 1300 l 2,4,5
 100 1340 100 1340 130 1370 c 128,-1,6
 160 1400 160 1400 200 1400 c 128,-1,7
 240 1400 240 1400 270 1370 c 2,8,-1
 900 740 l 1,9,-1
 900 1300 l 2,10,11
 900 1340 900 1340 930 1370 c 128,-1,12
 960 1400 960 1400 1000 1400 c 128,-1,13
 1040 1400 1040 1400 1070 1370 c 128,-1,14
 1100 1340 1100 1340 1100 1300 c 2,15,-1
 1100 100 l 2,16,17
 1100 60 1100 60 1070 30 c 128,-1,18
 1040 0 1040 0 1000 0 c 128,-1,19
 960 0 960 0 930 30 c 128,-1,20
 900 60 900 60 900 100 c 2,21,-1
 900 460 l 1,22,-1
 300 1060 l 1,23,-1
 300 100 l 2,24,25
 300 60 300 60 270 30 c 128,-1,26
 240 0 240 0 200 0 c 256,0,1
EndSplineSet
EndChar
StartChar: P
Encoding: 80 80 63
Width: 1200
GlyphClass: 1
Flags: W
LayerCount: 2
Fore
SplineSet
300 800 m 1,0,-1
 800 800 l 2,1,2
 840 800 840 800 870 830 c 128,-1,3
 900 860 900 860 900 900 c 2,4,-1
 900 1100 l 2,5,6
 900 1140 900 1140 870 1170 c 128,-1,7
 840 1200 840 1200 800 1200 c 2,8,-1
 300 1200 l 1,9,-1
 300 800 l 1,0,-1
300 100 m 2,10,11
 300 60 300 60 270 30 c 128,-1,12
 240 0 240 0 200 0 c 128,-1,13
 160 0 160 0 130 30 c 128,-1,14
 100 60 100 60 100 100 c 2,15,-1
 100 1300 l 2,16,17
 100 1340 100 1340 130 1370 c 128,-1,18
 160 1400 160 1400 200 1400 c 2,19,-1
 800 1400 l 2,20,21
 920 1400 920 1400 1010 1310 c 128,-1,22
 1100 1220 1100 1220 1100 1100 c 2,23,-1
 1100 900 l 2,24,25
 1100 780 1100 780 1010 690 c 128,-1,26
 920 600 920 600 800 600 c 2,27,-1
 300 600 l 1,28,-1
 300 100 l 2,10,11
EndSplineSet
EndChar
StartChar: S
Encoding: 83 83 66
Width: 1200
GlyphClass: 1
Flags: W
LayerCount: 2
Fore
SplineSet
400 600 m 2,0,1
 260 600 260 600 180 680 c 128,-1,2
 100 760 100 760 100 900 c 2,3,-1
 100 1100 l 2,4,5
 100 1220 100 1220 180 1310 c 128,-1,6
 260 1400 260 1400 400 1400 c 2,7,-1
 800 1400 l 2,8,9
 920 1400 920 1400 1010 1310 c 128,-1,10
 1100 1220 1100 1220 1100 1100 c 0,11,12
 1100 1060 1100 1060 1070 1030 c 128,-1,13
 1040 1000 1040 1000 1000 1000 c 256,14,15
 960 1000 960 1000 930 1030 c 128,-1,16
 900 1060 900 1060 900 1100 c 256,17,18
 900 1140 900 1140 870 1170 c 128,-1,19
 840 1200 840 1200 800 1200 c 2,20,-1
 400 1200 l 2,21,22
 360 1200 360 1200 330 1170 c 128,-1,23
 300 1140 300 1140 300 1100 c 2,24,-1
 300 900 l 2,25,26
 300 860 300 860 330 830 c 128,-1,27
 360 800 360 800 400 800 c 2,28,-1
 800 800 l 2,29,30
 920 800 920 800 1010 710 c 128,-1,31
 1100 620 1100 620 1100 500 c 2,32,-1
 1100 300 l 2,33,34
 1100 160 1100 160 1010 80 c 128,-1,35
 920 0 920 0 800 0 c 2,36,-1
 400 0 l 2,37,38
 280 0 280 0 190 90 c 128,-1,39
 100 180 100 180 100 300 c 0,40,41
 100 340 100 340 130 370 c 128,-1,42
 160 400 160 400 200 400 c 128,-1,43
 240 400 240 400 270 370 c 128,-1,44
 300 340 300 340 300 300 c 256,45,46
 300 260 300 260 330 230 c 128,-1,47
 360 200 360 200 400 200 c 2,48,-1
 800 200 l 2,49,50
 840 200 840 200 870 230 c 128,-1,51
 900 260 900 260 900 300 c 2,52,-1
 900 500 l 2,53,54
 900 540 900 540 870 570 c 128,-1,55
 840 600 840 600 800 600 c 2,56,-1
 400 600 l 2,0,1
EndSplineSet
EndChar
StartChar: T
Encoding: 84 84 67
Width: 1200
GlyphClass: 1
Flags: W
LayerCount: 2
Fore
SplineSet
200 1200 m 2,0,1
 160 1200 160 1200 130 1230 c 128,-1,2
 100 1260 100 1260 100 1300 c 128,-1,3
 100 1340 100 1340 130 1370 c 128,-1,4
 160 1400 160 1400 200 1400 c 2,5,-1
 1000 1400 l 2,6,7
 1040 1400 1040 1400 1070 1370 c 128,-1,8
 1100 1340 1100 1340 1100 1300 c 128,-1,9
 1100 1260 1100 1260 1070 1230 c 128,-1,10
 1040 1200 1040 1200 1000 1200 c 2,11,-1
 700 1200 l 1,12,-1
 700 100 l 2,13,14
 700 60 700 60 670 30 c 128,-1,15
 640 0 640 0 600 0 c 128,-1,16
 560 0 560 0 530 30 c 128,-1,17
 500 60 500 60 500 100 c 2,18,-1
 500 1200 l 1,19,-1
 200 1200 l 2,0,1
EndSplineSet
EndChar
StartChar: U
Encoding: 85 85 68
Width: 1200
GlyphClass: 1
Flags: W
LayerCount: 2
Fore
SplineSet
800 0 m 2,0,-1
 400 0 l 2,1,2
 280 0 280 0 190 90 c 128,-1,3
 100 180 100 180 100 300 c 2,4,-1
 100 1300 l 2,5,6
 100 1340 100 1340 130 1370 c 128,-1,7
 160 1400 160 1400 200 1400 c 128,-1,8
 240 1400 240 1400 270 1370 c 128,-1,9
 300 1340 300 1340 300 1300 c 2,10,-1
 300 300 l 2,11,12
 300 260 300 260 330 230 c 128,-1,13
 360 200 360 200 400 200 c 2,14,-1
 800 200 l 2,15,16
 840 200 840 200 870 230 c 128,-1,17
 900 260 900 260 900 300 c 2,18,-1
 900 1300 l 2,19,20
 900 1340 900 1340 930 1370 c 128,-1,21
 960 1400 960 1400 1000 1400 c 128,-1,22
 1040 1400 1040 1400 1070 1370 c 128,-1,23
 1100 1340 1100 1340 1100 1300 c 2,24,-1
 1100 300 l 2,25,26
 1100 180 1100 180 1010 90 c 128,-1,27
 920 0 920 0 800 0 c 2,0,-1
EndSplineSet
EndChar
StartChar: W
Encoding: 87 87 70
Width: 1200
GlyphClass: 1
Flags: W
LayerCount: 2
Fore
SplineSet
800 0 m 256,0,1
 680 0 680 0 590 90 c 1,2,3
 520 0 520 0 400 0 c 256,4,5
 280 0 280 0 190 90 c 128,-1,6
 100 180 100 180 100 300 c 2,7,-1
 100 1300 l 2,8,9
 100 1340 100 1340 130 1370 c 128,-1,10
 160 1400 160 1400 200 1400 c 128,-1,11
 240 1400 240 1400 270 1370 c 128,-1,12
 300 1340 300 1340 300 1300 c 2,13,-1
 300 300 l 2,14,15
 300 260 300 260 330 230 c 128,-1,16
 360 200 360 200 400 200 c 256,17,18
 440 200 440 200 470 230 c 128,-1,19
 500 260 500 260 500 300 c 2,20,-1
 500 700 l 2,21,22
 500 740 500 740 530 770 c 128,-1,23
 560 800 560 800 600 800 c 128,-1,24
 640 800 640 800 670 770 c 128,-1,25
 700 740 700 740 700 700 c 2,26,-1
 700 300 l 2,27,28
 700 260 700 260 730 230 c 128,-1,29
 760 200 760 200 800 200 c 256,30,31
 840 200 840 200 870 230 c 128,-1,32
 900 260 900 260 900 300 c 2,33,-1
 900 1300 l 2,34,35
 900 1340 900 1340 930 1370 c 128,-1,36
 960 1400 960 1400 1000 1400 c 128,-1,37
 1040 1400 1040 1400 1070 1370 c 128,-1,38
 1100 1340 1100 1340 1100 1300 c 2,39,-1
 1100 300 l 2,40,41
 1100 180 1100 180 1010 90 c 128,-1,42
 920 0 920 0 800 0 c 256,0,1
EndSplineSet
EndChar
StartChar: X
Encoding: 88 88 71
Width: 1200
GlyphClass: 1
Flags: W
LayerCount: 2
Fore
SplineSet
300 260 m 1,0,-1
 300 100 l 2,1,2
 300 60 300 60 270 30 c 128,-1,3
 240 0 240 0 200 0 c 128,-1,4
 160 0 160 0 130 30 c 128,-1,5
 100 60 100 60 100 100 c 2,6,-1
 100 300 l 2,7,8
 100 340 100 340 130 370 c 2,9,-1
 460 700 l 1,10,-1
 130 1030 l 2,11,12
 100 1060 100 1060 100 1100 c 2,13,-1
 100 1300 l 2,14,15
 100 1340 100 1340 130 1370 c 128,-1,16
 160 1400 160 1400 200 1400 c 128,-1,17
 240 1400 240 1400 270 1370 c 128,-1,18
 300 1340 300 1340 300 1300 c 2,19,-1
 300 1140 l 1,20,-1
 600 840 l 1,21,-1
 900 1140 l 1,22,-1
 900 1300 l 2,23,24
 900 1340 900 1340 930 1370 c 128,-1,25
 960 1400 960 1400 1000 1400 c 128,-1,26
 1040 1400 1040 1400 1070 1370 c 128,-1,27
 1100 1340 1100 1340 1100 1300 c 2,28,-1
 1100 1100 l 2,29,30
 1100 1060 1100 1060 1070 1030 c 2,31,-1
 736 700 l 1,32,-1
 1070 370 l 2,33,34
 1100 340 1100 340 1100 300 c 2,35,-1
 1100 100 l 2,36,37
 1100 60 1100 60 1070 30 c 128,-1,38
 1040 0 1040 0 1000 0 c 128,-1,39
 960 0 960 0 930 30 c 128,-1,40
 900 60 900 60 900 100 c 2,41,-1
 900 260 l 1,42,-1
 600 560 l 1,43,-1
 300 260 l 1,0,-1
EndSplineSet
EndChar
StartChar: Z
Encoding: 90 90 73
Width: 1200
GlyphClass: 1
Flags: W
LayerCount: 2
Fore
SplineSet
100 300 m 2,0,1
 100 340 100 340 130 370 c 2,2,-1
 900 1144 l 1,3,-1
 900 1200 l 1,4,-1
 200 1200 l 2,5,6
 160 1200 160 1200 130 1230 c 128,-1,7
 100 1260 100 1260 100 1300 c 128,-1,8
 100 1340 100 1340 130 1370 c 128,-1,9
 160 1400 160 1400 200 1400 c 2,10,-1
 1000 1400 l 2,11,12
 1040 1400 1040 1400 1070 1370 c 128,-1,13
 1100 1340 1100 1340 1100 1300 c 2,14,-1
 1100 1100 l 2,15,16
 1100 1060 1100 1060 1070 1030 c 2,17,-1
 300 264 l 1,18,-1
 300 200 l 1,19,-1
 1000 200 l 2,20,21
 1040 200 1040 200 1070 170 c 128,-1,22
 1100 140 1100 140 1100 100 c 128,-1,23
 1100 60 1100 60 1070 30 c 128,-1,24
 1040 0 1040 0 1000 0 c 2,25,-1
 200 0 l 2,26,27
 160 0 160 0 130 30 c 128,-1,28
 100 60 100 60 100 100 c 2,29,-1
 100 300 l 2,0,1
EndSplineSet
EndChar
StartChar: backslash
Encoding: 92 92 23
Width: 1200
GlyphClass: 1
Flags: W
LayerCount: 2
Fore
SplineSet
1098 302 m 25,0,-1
 900 264 l 5,1,-1
 130 1030 l 2,2,3
 100 1060 100 1060 100 1100 c 1025,4,-1
100 1100 m 25,5,-1
 300 1144 l 1025,6,-1
100 1100 m 1024,7,8
200 1400 m 1152,-1,6
300 1144 m 1,9,-1
 1070 370 l 2,10,11
 1100 340 1100 340 1100 300 c 1026,12,-1
EndSplineSet
EndChar
StartChar: bracketright
Encoding: 93 93 40
Width: 1200
GlyphClass: 1
Flags: W
LayerCount: 2
Fore
SplineSet
400 0 m 2,0,1
 360 0 360 0 330 30 c 128,-1,2
 300 60 300 60 300 100 c 128,-1,3
 300 140 300 140 330 170 c 128,-1,4
 360 200 360 200 400 200 c 2,5,-1
 500 200 l 1,6,-1
 500 1200 l 1,7,-1
 400 1200 l 2,8,9
 360 1200 360 1200 330 1230 c 128,-1,10
 300 1260 300 1260 300 1300 c 128,-1,11
 300 1340 300 1340 330 1370 c 128,-1,12
 360 1400 360 1400 400 1400 c 2,13,-1
 600 1400 l 2,14,15
 640 1400 640 1400 670 1370 c 128,-1,16
 700 1340 700 1340 700 1300 c 2,17,-1
 700 100 l 2,18,19
 700 60 700 60 670 30 c 128,-1,20
 640 0 640 0 600 0 c 2,21,-1
 400 0 l 2,0,1
EndSplineSet
EndChar
StartChar: asciicircum
Encoding: 94 94 41
Width: 1200
GlyphClass: 1
Flags: W
LayerCount: 2
Fore
SplineSet
200 800 m 256,0,1
 160 800 160 800 130 830 c 128,-1,2
 100 860 100 860 100 900 c 128,-1,3
 100 940 100 940 130 970 c 2,4,-1
 530 1370 l 2,5,6
 560 1400 560 1400 600 1400 c 128,-1,7
 640 1400 640 1400 670 1370 c 2,8,-1
 1070 970 l 2,9,10
 1100 940 1100 940 1100 900 c 128,-1,11
 1100 860 1100 860 1070 830 c 128,-1,12
 1040 800 1040 800 1000 800 c 256,13,14
 960 800 960 800 930 830 c 2,15,-1
 600 1164 l 1,16,-1
 270 830 l 2,17,18
 240 800 240 800 200 800 c 256,0,1
EndSplineSet
EndChar
StartChar: underscore
Encoding: 95 95 42
Width: 1200
GlyphClass: 1
Flags: W
LayerCount: 2
Fore
SplineSet
200 -200 m 2,0,1
 160 -200 160 -200 130 -170 c 128,-1,2
 100 -140 100 -140 100 -100 c 128,-1,3
 100 -60 100 -60 130 -30 c 128,-1,4
 160 0 160 0 200 0 c 2,5,-1
 1000 0 l 2,6,7
 1040 0 1040 0 1070 -30 c 128,-1,8
 1100 -60 1100 -60 1100 -100 c 128,-1,9
 1100 -140 1100 -140 1070 -170 c 128,-1,10
 1040 -200 1040 -200 1000 -200 c 2,11,-1
 200 -200 l 2,0,1
EndSplineSet
EndChar
StartChar: grave
Encoding: 96 96 43
Width: 1200
GlyphClass: 1
Flags: W
LayerCount: 2
Fore
SplineSet
530 1230 m 2,0,1
 500 1260 500 1260 500 1300 c 128,-1,2
 500 1340 500 1340 530 1370 c 128,-1,3
 560 1400 560 1400 600 1400 c 128,-1,4
 640 1400 640 1400 670 1370 c 2,5,-1
 870 1170 l 2,6,7
 900 1140 900 1140 900 1100 c 128,-1,8
 900 1060 900 1060 870 1030 c 128,-1,9
 840 1000 840 1000 800 1000 c 256,10,11
 760 1000 760 1000 730 1030 c 2,12,-1
 530 1230 l 2,0,1
EndSplineSet
EndChar
StartChar: b
Encoding: 98 98 76
Width: 1200
GlyphClass: 1
Flags: W
LayerCount: 2
Fore
SplineSet
800 800 m 2,0,-1
 300 800 l 1,1,-1
 300 200 l 1,2,-1
 800 200 l 2,3,4
 840 200 840 200 870 230 c 128,-1,5
 900 260 900 260 900 300 c 2,6,-1
 900 700 l 2,7,8
 900 740 900 740 870 770 c 128,-1,9
 840 800 840 800 800 800 c 2,0,-1
200 0 m 2,10,11
 160 0 160 0 130 30 c 128,-1,12
 100 60 100 60 100 100 c 2,13,-1
 100 1300 l 2,14,15
 100 1340 100 1340 130 1370 c 128,-1,16
 160 1400 160 1400 200 1400 c 128,-1,17
 240 1400 240 1400 270 1370 c 128,-1,18
 300 1340 300 1340 300 1300 c 2,19,-1
 300 1000 l 1,20,-1
 800 1000 l 2,21,22
 920 1000 920 1000 1010 910 c 128,-1,23
 1100 820 1100 820 1100 700 c 2,24,-1
 1100 300 l 2,25,26
 1100 180 1100 180 1010 90 c 128,-1,27
 920 0 920 0 800 0 c 2,28,-1
 200 0 l 2,10,11
EndSplineSet
EndChar
StartChar: c
Encoding: 99 99 77
Width: 1200
GlyphClass: 1
Flags: W
LayerCount: 2
Fore
SplineSet
400 0 m 2,0,1
 280 0 280 0 190 90 c 128,-1,2
 100 180 100 180 100 300 c 2,3,-1
 100 700 l 2,4,5
 100 820 100 820 190 910 c 128,-1,6
 280 1000 280 1000 400 1000 c 2,7,-1
 800 1000 l 2,8,9
 920 1000 920 1000 1010 910 c 128,-1,10
 1100 820 1100 820 1100 700 c 0,11,12
 1100 660 1100 660 1070 630 c 128,-1,13
 1040 600 1040 600 1000 600 c 256,14,15
 960 600 960 600 930 630 c 128,-1,16
 900 660 900 660 900 700 c 256,17,18
 900 740 900 740 870 770 c 128,-1,19
 840 800 840 800 800 800 c 2,20,-1
 400 800 l 2,21,22
 360 800 360 800 330 770 c 128,-1,23
 300 740 300 740 300 700 c 2,24,-1
 300 300 l 2,25,26
 300 260 300 260 330 230 c 128,-1,27
 360 200 360 200 400 200 c 2,28,-1
 800 200 l 2,29,30
 840 200 840 200 870 230 c 128,-1,31
 900 260 900 260 900 300 c 256,32,33
 900 340 900 340 930 370 c 128,-1,34
 960 400 960 400 1000 400 c 128,-1,35
 1040 400 1040 400 1070 370 c 128,-1,36
 1100 340 1100 340 1100 300 c 0,37,38
 1100 180 1100 180 1010 90 c 128,-1,39
 920 0 920 0 800 0 c 2,40,-1
 400 0 l 2,0,1
EndSplineSet
EndChar
StartChar: d
Encoding: 100 100 78
Width: 1200
GlyphClass: 1
Flags: W
LayerCount: 2
Fore
SplineSet
400 800 m 2,0,1
 360 800 360 800 330 770 c 128,-1,2
 300 740 300 740 300 700 c 2,3,-1
 300 300 l 2,4,5
 300 260 300 260 330 230 c 128,-1,6
 360 200 360 200 400 200 c 2,7,-1
 900 200 l 1,8,-1
 900 800 l 1,9,-1
 400 800 l 2,0,1
1000 0 m 2,10,-1
 400 0 l 2,11,12
 280 0 280 0 190 90 c 128,-1,13
 100 180 100 180 100 300 c 2,14,-1
 100 700 l 2,15,16
 100 820 100 820 190 910 c 128,-1,17
 280 1000 280 1000 400 1000 c 2,18,-1
 900 1000 l 1,19,-1
 900 1300 l 2,20,21
 900 1340 900 1340 930 1370 c 128,-1,22
 960 1400 960 1400 1000 1400 c 128,-1,23
 1040 1400 1040 1400 1070 1370 c 128,-1,24
 1100 1340 1100 1340 1100 1300 c 2,25,-1
 1100 100 l 2,26,27
 1100 60 1100 60 1070 30 c 128,-1,28
 1040 0 1040 0 1000 0 c 2,10,-1
EndSplineSet
EndChar
StartChar: f
Encoding: 102 102 80
Width: 1200
GlyphClass: 1
Flags: W
LayerCount: 2
Fore
SplineSet
800 800 m 2,0,-1
 700 800 l 1,1,-1
 700 100 l 2,2,3
 700 60 700 60 670 30 c 128,-1,4
 640 0 640 0 600 0 c 128,-1,5
 560 0 560 0 530 30 c 128,-1,6
 500 60 500 60 500 100 c 2,7,-1
 500 800 l 1,8,-1
 400 800 l 2,9,10
 360 800 360 800 330 830 c 128,-1,11
 300 860 300 860 300 900 c 128,-1,12
 300 940 300 940 330 970 c 128,-1,13
 360 1000 360 1000 400 1000 c 2,14,-1
 500 1000 l 1,15,-1
 500 1100 l 2,16,17
 500 1220 500 1220 590 1310 c 128,-1,18
 680 1400 680 1400 800 1400 c 2,19,-1
 1000 1400 l 2,20,21
 1040 1400 1040 1400 1070 1370 c 128,-1,22
 1100 1340 1100 1340 1100 1300 c 128,-1,23
 1100 1260 1100 1260 1070 1230 c 128,-1,24
 1040 1200 1040 1200 1000 1200 c 2,25,-1
 800 1200 l 2,26,27
 760 1200 760 1200 730 1170 c 128,-1,28
 700 1140 700 1140 700 1100 c 2,29,-1
 700 1000 l 1,30,-1
 800 1000 l 2,31,32
 840 1000 840 1000 870 970 c 128,-1,33
 900 940 900 940 900 900 c 128,-1,34
 900 860 900 860 870 830 c 128,-1,35
 840 800 840 800 800 800 c 2,0,-1
EndSplineSet
EndChar
StartChar: h
Encoding: 104 104 82
Width: 1200
GlyphClass: 1
Flags: W
LayerCount: 2
Fore
SplineSet
100 1300 m 2,0,1
 100 1340 100 1340 130 1370 c 128,-1,2
 160 1400 160 1400 200 1400 c 128,-1,3
 240 1400 240 1400 270 1370 c 128,-1,4
 300 1340 300 1340 300 1300 c 2,5,-1
 300 1000 l 1,6,-1
 800 1000 l 2,7,8
 920 1000 920 1000 1010 910 c 128,-1,9
 1100 820 1100 820 1100 700 c 2,10,-1
 1100 100 l 2,11,12
 1100 60 1100 60 1070 30 c 128,-1,13
 1040 0 1040 0 1000 0 c 128,-1,14
 960 0 960 0 930 30 c 128,-1,15
 900 60 900 60 900 100 c 2,16,-1
 900 700 l 2,17,18
 900 740 900 740 870 770 c 128,-1,19
 840 800 840 800 800 800 c 2,20,-1
 300 800 l 1,21,-1
 300 100 l 2,22,23
 300 60 300 60 270 30 c 128,-1,24
 240 0 240 0 200 0 c 128,-1,25
 160 0 160 0 130 30 c 128,-1,26
 100 60 100 60 100 100 c 2,27,-1
 100 1300 l 2,0,1
EndSplineSet
EndChar
StartChar: i
Encoding: 105 105 83
Width: 1200
GlyphClass: 1
Flags: W
LayerCount: 2
Fore
SplineSet
500 800 m 1,0,-1
 400 800 l 2,1,2
 360 800 360 800 330 830 c 128,-1,3
 300 860 300 860 300 900 c 128,-1,4
 300 940 300 940 330 970 c 128,-1,5
 360 1000 360 1000 400 1000 c 2,6,-1
 600 1000 l 2,7,8
 640 1000 640 1000 670 970 c 128,-1,9
 700 940 700 940 700 900 c 2,10,-1
 700 200 l 1,11,-1
 800 200 l 2,12,13
 840 200 840 200 870 170 c 128,-1,14
 900 140 900 140 900 100 c 128,-1,15
 900 60 900 60 870 30 c 128,-1,16
 840 0 840 0 800 0 c 2,17,-1
 400 0 l 2,18,19
 360 0 360 0 330 30 c 128,-1,20
 300 60 300 60 300 100 c 128,-1,21
 300 140 300 140 330 170 c 128,-1,22
 360 200 360 200 400 200 c 2,23,-1
 500 200 l 1,24,-1
 500 800 l 1,0,-1
600 1200 m 256,25,26
 560 1200 560 1200 530 1230 c 128,-1,27
 500 1260 500 1260 500 1300 c 256,28,29
 500 1340 500 1340 530 1370 c 128,-1,30
 560 1400 560 1400 600 1400 c 128,-1,31
 640 1400 640 1400 670 1370 c 128,-1,32
 700 1340 700 1340 700 1300 c 256,33,34
 700 1260 700 1260 670 1230 c 128,-1,35
 640 1200 640 1200 600 1200 c 256,25,26
EndSplineSet
EndChar
StartChar: j
Encoding: 106 106 84
Width: 1200
GlyphClass: 1
Flags: W
LayerCount: 2
Fore
SplineSet
800 1200 m 256,0,1
 760 1200 760 1200 730 1230 c 128,-1,2
 700 1260 700 1260 700 1300 c 128,-1,3
 700 1340 700 1340 730 1370 c 128,-1,4
 760 1400 760 1400 800 1400 c 128,-1,5
 840 1400 840 1400 870 1370 c 128,-1,6
 900 1340 900 1340 900 1300 c 128,-1,7
 900 1260 900 1260 870 1230 c 128,-1,8
 840 1200 840 1200 800 1200 c 256,0,1
600 800 m 2,9,10
 560 800 560 800 530 830 c 128,-1,11
 500 860 500 860 500 900 c 128,-1,12
 500 940 500 940 530 970 c 128,-1,13
 560 1000 560 1000 600 1000 c 2,14,-1
 800 1000 l 2,15,16
 840 1000 840 1000 870 970 c 128,-1,17
 900 940 900 940 900 900 c 2,18,-1
 900 100 l 2,19,20
 900 -20 900 -20 810 -110 c 128,-1,21
 720 -200 720 -200 600 -200 c 2,22,-1
 400 -200 l 2,23,24
 280 -200 280 -200 190 -110 c 128,-1,25
 100 -20 100 -20 100 100 c 0,26,27
 100 140 100 140 130 170 c 128,-1,28
 160 200 160 200 200 200 c 128,-1,29
 240 200 240 200 270 170 c 128,-1,30
 300 140 300 140 300 100 c 256,31,32
 300 60 300 60 330 30 c 128,-1,33
 360 0 360 0 400 0 c 2,34,-1
 600 0 l 2,35,36
 640 0 640 0 670 30 c 128,-1,37
 700 60 700 60 700 100 c 2,38,-1
 700 800 l 1,39,-1
 600 800 l 2,9,10
EndSplineSet
EndChar
StartChar: k
Encoding: 107 107 85
Width: 1200
GlyphClass: 1
Flags: W
LayerCount: 2
Fore
SplineSet
1000 0 m 256,0,1
 960 0 960 0 930 30 c 2,2,-1
 600 360 l 1,3,-1
 500 260 l 1,4,-1
 500 100 l 2,5,6
 500 60 500 60 470 30 c 128,-1,7
 440 0 440 0 400 0 c 128,-1,8
 360 0 360 0 330 30 c 128,-1,9
 300 60 300 60 300 100 c 2,10,-1
 300 1300 l 2,11,12
 300 1340 300 1340 330 1370 c 128,-1,13
 360 1400 360 1400 400 1400 c 128,-1,14
 440 1400 440 1400 470 1370 c 128,-1,15
 500 1340 500 1340 500 1300 c 2,16,-1
 500 544 l 1,17,-1
 930 970 l 2,18,19
 960 1000 960 1000 1000 1000 c 128,-1,20
 1040 1000 1040 1000 1070 970 c 128,-1,21
 1100 940 1100 940 1100 900 c 128,-1,22
 1100 860 1100 860 1070 830 c 2,23,-1
 740 504 l 1,24,-1
 1070 170 l 2,25,26
 1100 140 1100 140 1100 100 c 128,-1,27
 1100 60 1100 60 1070 30 c 128,-1,28
 1040 0 1040 0 1000 0 c 256,0,1
EndSplineSet
EndChar
StartChar: l
Encoding: 108 108 86
Width: 1200
GlyphClass: 1
Flags: W
LayerCount: 2
Fore
SplineSet
400 0 m 2,0,1
 360 0 360 0 330 30 c 128,-1,2
 300 60 300 60 300 100 c 128,-1,3
 300 140 300 140 330 170 c 128,-1,4
 360 200 360 200 400 200 c 2,5,-1
 500 200 l 1,6,-1
 500 1200 l 1,7,-1
 400 1200 l 2,8,9
 360 1200 360 1200 330 1230 c 128,-1,10
 300 1260 300 1260 300 1300 c 128,-1,11
 300 1340 300 1340 330 1370 c 128,-1,12
 360 1400 360 1400 400 1400 c 2,13,-1
 600 1400 l 2,14,15
 640 1400 640 1400 670 1370 c 128,-1,16
 700 1340 700 1340 700 1300 c 2,17,-1
 700 200 l 1,18,-1
 800 200 l 2,19,20
 840 200 840 200 870 170 c 128,-1,21
 900 140 900 140 900 100 c 128,-1,22
 900 60 900 60 870 30 c 128,-1,23
 840 0 840 0 800 0 c 2,24,-1
 400 0 l 2,0,1
EndSplineSet
EndChar
StartChar: m
Encoding: 109 109 87
Width: 1200
GlyphClass: 1
Flags: W
LayerCount: 2
Fore
SplineSet
300 800 m 1,0,-1
 300 100 l 2,1,2
 300 60 300 60 270 30 c 128,-1,3
 240 0 240 0 200 0 c 128,-1,4
 160 0 160 0 130 30 c 128,-1,5
 100 60 100 60 100 100 c 2,6,-1
 100 900 l 2,7,8
 100 940 100 940 130 970 c 128,-1,9
 160 1000 160 1000 200 1000 c 2,10,-1
 400 1000 l 2,11,12
 520 1000 520 1000 610 910 c 1,13,14
 680 1000 680 1000 800 1000 c 256,15,16
 920 1000 920 1000 1010 910 c 128,-1,17
 1100 820 1100 820 1100 700 c 2,18,-1
 1100 100 l 2,19,20
 1100 60 1100 60 1070 30 c 128,-1,21
 1040 0 1040 0 1000 0 c 128,-1,22
 960 0 960 0 930 30 c 128,-1,23
 900 60 900 60 900 100 c 2,24,-1
 900 700 l 2,25,26
 900 740 900 740 870 770 c 128,-1,27
 840 800 840 800 800 800 c 256,28,29
 760 800 760 800 730 770 c 128,-1,30
 700 740 700 740 700 700 c 2,31,-1
 700 100 l 2,32,33
 700 60 700 60 670 30 c 128,-1,34
 640 0 640 0 600 0 c 128,-1,35
 560 0 560 0 530 30 c 128,-1,36
 500 60 500 60 500 100 c 2,37,-1
 500 700 l 2,38,39
 500 740 500 740 470 770 c 128,-1,40
 440 800 440 800 400 800 c 2,41,-1
 300 800 l 1,0,-1
EndSplineSet
EndChar
StartChar: o
Encoding: 111 111 89
Width: 1200
GlyphClass: 1
Flags: W
LayerCount: 2
Fore
SplineSet
400 0 m 2,0,1
 280 0 280 0 190 90 c 128,-1,2
 100 180 100 180 100 300 c 2,3,-1
 100 700 l 2,4,5
 100 820 100 820 190 910 c 128,-1,6
 280 1000 280 1000 400 1000 c 2,7,-1
 800 1000 l 2,8,9
 920 1000 920 1000 1010 910 c 128,-1,10
 1100 820 1100 820 1100 700 c 2,11,-1
 1100 300 l 2,12,13
 1100 180 1100 180 1010 90 c 128,-1,14
 920 0 920 0 800 0 c 2,15,-1
 400 0 l 2,0,1
900 700 m 2,16,17
 900 740 900 740 870 770 c 128,-1,18
 840 800 840 800 800 800 c 2,19,-1
 400 800 l 2,20,21
 360 800 360 800 330 770 c 128,-1,22
 300 740 300 740 300 700 c 2,23,-1
 300 300 l 2,24,25
 300 260 300 260 330 230 c 128,-1,26
 360 200 360 200 400 200 c 2,27,-1
 800 200 l 2,28,29
 840 200 840 200 870 230 c 128,-1,30
 900 260 900 260 900 300 c 2,31,-1
 900 700 l 2,16,17
EndSplineSet
EndChar
StartChar: p
Encoding: 112 112 90
Width: 1200
GlyphClass: 1
Flags: W
LayerCount: 2
Fore
SplineSet
800 200 m 2,0,-1
 300 200 l 1,1,-1
 300 -100 l 2,2,3
 300 -140 300 -140 270 -170 c 128,-1,4
 240 -200 240 -200 200 -200 c 128,-1,5
 160 -200 160 -200 130 -172 c 128,-1,6
 100 -144 100 -144 100 -100 c 2,7,-1
 100 900 l 2,8,9
 100 940 100 940 130 970 c 128,-1,10
 160 1000 160 1000 200 1000 c 2,11,-1
 800 1000 l 2,12,13
 920 1000 920 1000 1010 910 c 128,-1,14
 1100 820 1100 820 1100 700 c 2,15,-1
 1100 500 l 2,16,17
 1100 380 1100 380 1010 290 c 128,-1,18
 920 200 920 200 800 200 c 2,0,-1
300 400 m 1,19,-1
 800 400 l 2,20,21
 840 400 840 400 870 430 c 128,-1,22
 900 460 900 460 900 500 c 2,23,-1
 900 700 l 2,24,25
 900 740 900 740 870 770 c 128,-1,26
 840 800 840 800 800 800 c 2,27,-1
 300 800 l 1,28,-1
 300 400 l 1,19,-1
EndSplineSet
EndChar
StartChar: q
Encoding: 113 113 91
Width: 1200
GlyphClass: 1
Flags: W
LayerCount: 2
Fore
SplineSet
400 200 m 2,0,1
 280 200 280 200 190 290 c 128,-1,2
 100 380 100 380 100 500 c 2,3,-1
 100 700 l 2,4,5
 100 820 100 820 190 910 c 128,-1,6
 280 1000 280 1000 400 1000 c 2,7,-1
 1000 1000 l 2,8,9
 1040 1000 1040 1000 1070 970 c 128,-1,10
 1100 940 1100 940 1100 900 c 2,11,-1
 1100 -100 l 2,12,13
 1100 -144 1100 -144 1070 -172 c 128,-1,14
 1040 -200 1040 -200 1000 -200 c 128,-1,15
 960 -200 960 -200 930 -170 c 128,-1,16
 900 -140 900 -140 900 -100 c 2,17,-1
 900 200 l 1,18,-1
 400 200 l 2,0,1
900 400 m 1,19,-1
 900 800 l 1,20,-1
 400 800 l 2,21,22
 360 800 360 800 330 770 c 128,-1,23
 300 740 300 740 300 700 c 2,24,-1
 300 500 l 2,25,26
 300 460 300 460 330 430 c 128,-1,27
 360 400 360 400 400 400 c 2,28,-1
 900 400 l 1,19,-1
EndSplineSet
EndChar
StartChar: r
Encoding: 114 114 92
Width: 1200
GlyphClass: 1
Flags: W
LayerCount: 2
Fore
SplineSet
500 800 m 1,0,-1
 500 100 l 2,1,2
 500 60 500 60 470 30 c 128,-1,3
 440 0 440 0 400 0 c 128,-1,4
 360 0 360 0 330 30 c 128,-1,5
 300 60 300 60 300 100 c 2,6,-1
 300 900 l 2,7,8
 300 940 300 940 330 970 c 128,-1,9
 360 1000 360 1000 400 1000 c 2,10,-1
 800 1000 l 2,11,12
 920 1000 920 1000 1010 910 c 128,-1,13
 1100 820 1100 820 1100 700 c 0,14,15
 1100 660 1100 660 1070 630 c 128,-1,16
 1040 600 1040 600 1000 600 c 128,-1,17
 960 600 960 600 930 630 c 128,-1,18
 900 660 900 660 900 700 c 256,19,20
 900 740 900 740 870 770 c 128,-1,21
 840 800 840 800 800 800 c 2,22,-1
 500 800 l 1,0,-1
EndSplineSet
EndChar
StartChar: t
Encoding: 116 116 94
Width: 1200
GlyphClass: 1
Flags: W
LayerCount: 2
Fore
SplineSet
400 800 m 2,0,1
 360 800 360 800 330 830 c 128,-1,2
 300 860 300 860 300 900 c 128,-1,3
 300 940 300 940 330 970 c 128,-1,4
 360 1000 360 1000 400 1000 c 2,5,-1
 500 1000 l 1,6,-1
 500 1300 l 2,7,8
 500 1340 500 1340 530 1370 c 128,-1,9
 560 1400 560 1400 600 1400 c 128,-1,10
 640 1400 640 1400 670 1370 c 128,-1,11
 700 1340 700 1340 700 1300 c 2,12,-1
 700 1000 l 1,13,-1
 1000 1000 l 2,14,15
 1040 1000 1040 1000 1070 970 c 128,-1,16
 1100 940 1100 940 1100 900 c 128,-1,17
 1100 860 1100 860 1070 830 c 128,-1,18
 1040 800 1040 800 1000 800 c 2,19,-1
 700 800 l 1,20,-1
 700 300 l 2,21,22
 700 260 700 260 730 230 c 128,-1,23
 760 200 760 200 800 200 c 2,24,-1
 1000 200 l 2,25,26
 1040 200 1040 200 1070 170 c 128,-1,27
 1100 140 1100 140 1100 100 c 128,-1,28
 1100 60 1100 60 1070 30 c 128,-1,29
 1040 0 1040 0 1000 0 c 2,30,-1
 800 0 l 2,31,32
 680 0 680 0 590 90 c 128,-1,33
 500 180 500 180 500 300 c 2,34,-1
 500 800 l 1,35,-1
 400 800 l 2,0,1
EndSplineSet
EndChar
StartChar: u
Encoding: 117 117 95
Width: 1200
GlyphClass: 1
Flags: W
LayerCount: 2
Fore
SplineSet
900 200 m 1,0,-1
 900 900 l 2,1,2
 900 940 900 940 930 970 c 128,-1,3
 960 1000 960 1000 1000 1000 c 128,-1,4
 1040 1000 1040 1000 1070 970 c 128,-1,5
 1100 940 1100 940 1100 900 c 2,6,-1
 1100 100 l 2,7,8
 1100 60 1100 60 1070 30 c 128,-1,9
 1040 0 1040 0 1000 0 c 2,10,-1
 400 0 l 2,11,12
 280 0 280 0 190 90 c 128,-1,13
 100 180 100 180 100 300 c 2,14,-1
 100 900 l 2,15,16
 100 940 100 940 130 970 c 128,-1,17
 160 1000 160 1000 200 1000 c 128,-1,18
 240 1000 240 1000 270 970 c 128,-1,19
 300 940 300 940 300 900 c 2,20,-1
 300 300 l 2,21,22
 300 260 300 260 330 230 c 128,-1,23
 360 200 360 200 400 200 c 2,24,-1
 900 200 l 1,0,-1
EndSplineSet
EndChar
StartChar: v
Encoding: 118 118 96
Width: 1200
GlyphClass: 1
Flags: W
LayerCount: 2
Fore
SplineSet
600 0 m 256,0,1
 560 0 560 0 530 30 c 2,2,-1
 130 430 l 2,3,4
 100 460 100 460 100 500 c 2,5,-1
 100 900 l 2,6,7
 100 940 100 940 130 970 c 128,-1,8
 160 1000 160 1000 200 1000 c 128,-1,9
 240 1000 240 1000 270 970 c 128,-1,10
 300 940 300 940 300 900 c 2,11,-1
 300 596 l 1,12,-1
 600 296 l 1,13,-1
 900 596 l 1,14,-1
 900 900 l 2,15,16
 900 940 900 940 930 970 c 128,-1,17
 960 1000 960 1000 1000 1000 c 128,-1,18
 1040 1000 1040 1000 1070 970 c 128,-1,19
 1100 940 1100 940 1100 900 c 2,20,-1
 1100 500 l 2,21,22
 1100 460 1100 460 1070 430 c 2,23,-1
 670 30 l 2,24,25
 640 0 640 0 600 0 c 256,0,1
EndSplineSet
EndChar
StartChar: w
Encoding: 119 119 97
Width: 1200
GlyphClass: 1
Flags: W
LayerCount: 2
Fore
SplineSet
800 0 m 256,0,1
 680 0 680 0 590 90 c 1,2,3
 520 0 520 0 400 0 c 256,4,5
 280 0 280 0 190 90 c 128,-1,6
 100 180 100 180 100 300 c 2,7,-1
 100 900 l 2,8,9
 100 940 100 940 130 970 c 128,-1,10
 160 1000 160 1000 200 1000 c 128,-1,11
 240 1000 240 1000 270 970 c 128,-1,12
 300 940 300 940 300 900 c 2,13,-1
 300 300 l 2,14,15
 300 260 300 260 330 230 c 128,-1,16
 360 200 360 200 400 200 c 256,17,18
 440 200 440 200 470 230 c 128,-1,19
 500 260 500 260 500 300 c 2,20,-1
 500 700 l 2,21,22
 500 740 500 740 530 770 c 128,-1,23
 560 800 560 800 600 800 c 128,-1,24
 640 800 640 800 670 770 c 128,-1,25
 700 740 700 740 700 700 c 2,26,-1
 700 300 l 2,27,28
 700 260 700 260 730 230 c 128,-1,29
 760 200 760 200 800 200 c 256,30,31
 840 200 840 200 870 230 c 128,-1,32
 900 260 900 260 900 300 c 2,33,-1
 900 900 l 2,34,35
 900 940 900 940 930 970 c 128,-1,36
 960 1000 960 1000 1000 1000 c 128,-1,37
 1040 1000 1040 1000 1070 970 c 128,-1,38
 1100 940 1100 940 1100 900 c 2,39,-1
 1100 300 l 2,40,41
 1100 180 1100 180 1010 90 c 128,-1,42
 920 0 920 0 800 0 c 256,0,1
EndSplineSet
EndChar
StartChar: y
Encoding: 121 121 99
Width: 1200
GlyphClass: 1
Flags: W
LayerCount: 2
Fore
SplineSet
400 200 m 2,0,1
 280 200 280 200 190 290 c 128,-1,2
 100 380 100 380 100 500 c 2,3,-1
 100 900 l 2,4,5
 100 940 100 940 130 970 c 128,-1,6
 160 1000 160 1000 200 1000 c 128,-1,7
 240 1000 240 1000 270 970 c 128,-1,8
 300 940 300 940 300 900 c 2,9,-1
 300 500 l 2,10,11
 300 460 300 460 330 430 c 128,-1,12
 360 400 360 400 400 400 c 2,13,-1
 900 400 l 1,14,-1
 900 900 l 2,15,16
 900 940 900 940 930 970 c 128,-1,17
 960 1000 960 1000 1000 1000 c 128,-1,18
 1040 1000 1040 1000 1070 970 c 128,-1,19
 1100 940 1100 940 1100 900 c 2,20,-1
 1100 100 l 2,21,22
 1100 -20 1100 -20 1010 -110 c 128,-1,23
 920 -200 920 -200 800 -200 c 2,24,-1
 400 -200 l 2,25,26
 360 -200 360 -200 330 -170 c 128,-1,27
 300 -140 300 -140 300 -100 c 128,-1,28
 300 -60 300 -60 330 -30 c 128,-1,29
 360 0 360 0 400 0 c 2,30,-1
 800 0 l 2,31,32
 840 0 840 0 870 30 c 128,-1,33
 900 60 900 60 900 100 c 2,34,-1
 900 200 l 1,35,-1
 400 200 l 2,0,1
EndSplineSet
EndChar
StartChar: braceleft
Encoding: 123 123 45
Width: 1200
GlyphClass: 1
Flags: W
LayerCount: 2
Fore
SplineSet
800 0 m 0,0,1
 680 0 680 0 590 90 c 128,-1,2
 500 180 500 180 500 300 c 2,3,-1
 500 500 l 2,4,5
 500 540 500 540 470 570 c 128,-1,6
 440 600 440 600 400 600 c 256,7,8
 360 600 360 600 330 630 c 128,-1,9
 300 660 300 660 300 700 c 128,-1,10
 300 740 300 740 330 770 c 128,-1,11
 360 800 360 800 400 800 c 1,12,13
 436 796 436 796 468 828 c 128,-1,14
 500 860 500 860 500 900 c 2,15,-1
 500 1100 l 2,16,17
 500 1220 500 1220 590 1310 c 128,-1,18
 680 1400 680 1400 800 1400 c 0,19,20
 840 1400 840 1400 870 1370 c 128,-1,21
 900 1340 900 1340 900 1300 c 128,-1,22
 900 1260 900 1260 870 1230 c 128,-1,23
 840 1200 840 1200 800 1200 c 256,24,25
 760 1200 760 1200 730 1170 c 128,-1,26
 700 1140 700 1140 700 1100 c 2,27,-1
 700 900 l 2,28,29
 700 780 700 780 610 690 c 1,30,31
 700 620 700 620 700 500 c 2,32,-1
 700 300 l 2,33,34
 700 260 700 260 730 230 c 128,-1,35
 760 200 760 200 800 200 c 256,36,37
 840 200 840 200 870 170 c 128,-1,38
 900 140 900 140 900 100 c 128,-1,39
 900 60 900 60 870 30 c 128,-1,40
 840 0 840 0 800 0 c 0,0,1
EndSplineSet
EndChar
StartChar: braceright
Encoding: 125 125 44
Width: 1200
GlyphClass: 1
Flags: W
LayerCount: 2
Fore
SplineSet
400 0 m 0,0,1
 360 0 360 0 330 30 c 128,-1,2
 300 60 300 60 300 100 c 128,-1,3
 300 140 300 140 330 170 c 128,-1,4
 360 200 360 200 400 200 c 256,5,6
 440 200 440 200 470 230 c 128,-1,7
 500 260 500 260 500 300 c 2,8,-1
 500 500 l 2,9,10
 500 620 500 620 590 690 c 1,11,12
 500 780 500 780 500 900 c 2,13,-1
 500 1100 l 2,14,15
 500 1140 500 1140 470 1170 c 128,-1,16
 440 1200 440 1200 400 1200 c 256,17,18
 360 1200 360 1200 330 1230 c 128,-1,19
 300 1260 300 1260 300 1300 c 128,-1,20
 300 1340 300 1340 330 1370 c 128,-1,21
 360 1400 360 1400 400 1400 c 0,22,23
 520 1400 520 1400 610 1310 c 128,-1,24
 700 1220 700 1220 700 1100 c 2,25,-1
 700 900 l 2,26,27
 700 860 700 860 732 828 c 128,-1,28
 764 796 764 796 800 800 c 1,29,30
 840 800 840 800 870 770 c 128,-1,31
 900 740 900 740 900 700 c 128,-1,32
 900 660 900 660 870 630 c 128,-1,33
 840 600 840 600 800 600 c 256,34,35
 760 600 760 600 730 570 c 128,-1,36
 700 540 700 540 700 500 c 2,37,-1
 700 300 l 2,38,39
 700 180 700 180 610 90 c 128,-1,40
 520 0 520 0 400 0 c 0,0,1
EndSplineSet
EndChar
StartChar: uni007F
Encoding: 127 127 49
Width: 1200
GlyphClass: 1
Flags: W
LayerCount: 2
Fore
SplineSet
1000 1400 m 2,0,1
 1040 1400 1040 1400 1070 1370 c 128,-1,2
 1100 1340 1100 1340 1100 1300 c 2,3,-1
 1100 100 l 2,4,5
 1100 60 1100 60 1070 30 c 128,-1,6
 1040 0 1040 0 1000 0 c 2,7,-1
 200 0 l 2,8,9
 160 0 160 0 130 30 c 128,-1,10
 100 60 100 60 100 100 c 2,11,-1
 100 1300 l 2,12,13
 100 1340 100 1340 130 1370 c 128,-1,14
 160 1400 160 1400 200 1400 c 2,15,-1
 1000 1400 l 2,0,1
EndSplineSet
EndChar
StartChar: glyph12
Encoding: 65538 -1 12
Width: 1200
GlyphClass: 1
Flags: W
LayerCount: 2
Fore
SplineSet
400 0 m 256,0,1
 360 0 360 0 330 30 c 128,-1,2
 300 60 300 60 300 100 c 128,-1,3
 300 140 300 140 330 170 c 128,-1,4
 360 200 360 200 400 200 c 128,-1,5
 440 200 440 200 470 170 c 128,-1,6
 500 140 500 140 500 100 c 128,-1,7
 500 60 500 60 470 30 c 128,-1,8
 440 0 440 0 400 0 c 256,0,1
600 0 m 256,9,10
 560 0 560 0 530 30 c 128,-1,11
 500 60 500 60 500 100 c 128,-1,12
 500 140 500 140 530 170 c 128,-1,13
 560 200 560 200 600 200 c 128,-1,14
 640 200 640 200 670 170 c 128,-1,15
 700 140 700 140 700 100 c 128,-1,16
 700 60 700 60 670 30 c 128,-1,17
 640 0 640 0 600 0 c 256,9,10
800 0 m 256,18,19
 760 0 760 0 730 30 c 128,-1,20
 700 60 700 60 700 100 c 128,-1,21
 700 140 700 140 730 170 c 128,-1,22
 760 200 760 200 800 200 c 128,-1,23
 840 200 840 200 870 170 c 128,-1,24
 900 140 900 140 900 100 c 128,-1,25
 900 60 900 60 870 30 c 128,-1,26
 840 0 840 0 800 0 c 256,18,19
1000 0 m 256,27,28
 960 0 960 0 930 30 c 128,-1,29
 900 60 900 60 900 100 c 128,-1,30
 900 140 900 140 930 170 c 128,-1,31
 960 200 960 200 1000 200 c 128,-1,32
 1040 200 1040 200 1070 170 c 128,-1,33
 1100 140 1100 140 1100 100 c 128,-1,34
 1100 60 1100 60 1070 30 c 128,-1,35
 1040 0 1040 0 1000 0 c 256,27,28
200 200 m 256,36,37
 160 200 160 200 130 230 c 128,-1,38
 100 260 100 260 100 300 c 128,-1,39
 100 340 100 340 130 370 c 128,-1,40
 160 400 160 400 200 400 c 128,-1,41
 240 400 240 400 270 370 c 128,-1,42
 300 340 300 340 300 300 c 128,-1,43
 300 260 300 260 270 230 c 128,-1,44
 240 200 240 200 200 200 c 256,36,37
400 200 m 256,45,46
 360 200 360 200 330 230 c 128,-1,47
 300 260 300 260 300 300 c 128,-1,48
 300 340 300 340 330 370 c 128,-1,49
 360 400 360 400 400 400 c 128,-1,50
 440 400 440 400 470 370 c 128,-1,51
 500 340 500 340 500 300 c 128,-1,52
 500 260 500 260 470 230 c 128,-1,53
 440 200 440 200 400 200 c 256,45,46
600 200 m 256,54,55
 560 200 560 200 530 230 c 128,-1,56
 500 260 500 260 500 300 c 128,-1,57
 500 340 500 340 530 370 c 128,-1,58
 560 400 560 400 600 400 c 128,-1,59
 640 400 640 400 670 370 c 128,-1,60
 700 340 700 340 700 300 c 128,-1,61
 700 260 700 260 670 230 c 128,-1,62
 640 200 640 200 600 200 c 256,54,55
800 200 m 256,63,64
 760 200 760 200 730 230 c 128,-1,65
 700 260 700 260 700 300 c 128,-1,66
 700 340 700 340 730 370 c 128,-1,67
 760 400 760 400 800 400 c 128,-1,68
 840 400 840 400 870 370 c 128,-1,69
 900 340 900 340 900 300 c 128,-1,70
 900 260 900 260 870 230 c 128,-1,71
 840 200 840 200 800 200 c 256,63,64
1000 200 m 256,72,73
 960 200 960 200 930 230 c 128,-1,74
 900 260 900 260 900 300 c 128,-1,75
 900 340 900 340 930 370 c 128,-1,76
 960 400 960 400 1000 400 c 128,-1,77
 1040 400 1040 400 1070 370 c 128,-1,78
 1100 340 1100 340 1100 300 c 128,-1,79
 1100 260 1100 260 1070 230 c 128,-1,80
 1040 200 1040 200 1000 200 c 256,72,73
200 400 m 256,81,82
 160 400 160 400 130 430 c 128,-1,83
 100 460 100 460 100 500 c 128,-1,84
 100 540 100 540 130 570 c 128,-1,85
 160 600 160 600 200 600 c 128,-1,86
 240 600 240 600 270 570 c 128,-1,87
 300 540 300 540 300 500 c 128,-1,88
 300 460 300 460 270 430 c 128,-1,89
 240 400 240 400 200 400 c 256,81,82
200 600 m 256,90,91
 160 600 160 600 130 630 c 128,-1,92
 100 660 100 660 100 700 c 128,-1,93
 100 740 100 740 130 770 c 128,-1,94
 160 800 160 800 200 800 c 128,-1,95
 240 800 240 800 270 770 c 128,-1,96
 300 740 300 740 300 700 c 128,-1,97
 300 660 300 660 270 630 c 128,-1,98
 240 600 240 600 200 600 c 256,90,91
200 800 m 256,99,100
 160 800 160 800 130 830 c 128,-1,101
 100 860 100 860 100 900 c 128,-1,102
 100 940 100 940 130 970 c 128,-1,103
 160 1000 160 1000 200 1000 c 128,-1,104
 240 1000 240 1000 270 970 c 128,-1,105
 300 940 300 940 300 900 c 128,-1,106
 300 860 300 860 270 830 c 128,-1,107
 240 800 240 800 200 800 c 256,99,100
200 1000 m 256,108,109
 160 1000 160 1000 130 1030 c 128,-1,110
 100 1060 100 1060 100 1100 c 128,-1,111
 100 1140 100 1140 130 1170 c 128,-1,112
 160 1200 160 1200 200 1200 c 128,-1,113
 240 1200 240 1200 270 1170 c 128,-1,114
 300 1140 300 1140 300 1100 c 128,-1,115
 300 1060 300 1060 270 1030 c 128,-1,116
 240 1000 240 1000 200 1000 c 256,108,109
200 1200 m 256,117,118
 160 1200 160 1200 130 1230 c 128,-1,119
 100 1260 100 1260 100 1300 c 128,-1,120
 100 1340 100 1340 130 1370 c 128,-1,121
 160 1400 160 1400 200 1400 c 128,-1,122
 240 1400 240 1400 270 1370 c 128,-1,123
 300 1340 300 1340 300 1300 c 128,-1,124
 300 1260 300 1260 270 1230 c 128,-1,125
 240 1200 240 1200 200 1200 c 256,117,118
400 400 m 256,126,127
 360 400 360 400 330 430 c 128,-1,128
 300 460 300 460 300 500 c 128,-1,129
 300 540 300 540 330 570 c 128,-1,130
 360 600 360 600 400 600 c 128,-1,131
 440 600 440 600 470 570 c 128,-1,132
 500 540 500 540 500 500 c 128,-1,133
 500 460 500 460 470 430 c 128,-1,134
 440 400 440 400 400 400 c 256,126,127
600 400 m 256,135,136
 560 400 560 400 530 430 c 128,-1,137
 500 460 500 460 500 500 c 128,-1,138
 500 540 500 540 530 570 c 128,-1,139
 560 600 560 600 600 600 c 128,-1,140
 640 600 640 600 670 570 c 128,-1,141
 700 540 700 540 700 500 c 128,-1,142
 700 460 700 460 670 430 c 128,-1,143
 640 400 640 400 600 400 c 256,135,136
800 400 m 256,144,145
 760 400 760 400 730 430 c 128,-1,146
 700 460 700 460 700 500 c 128,-1,147
 700 540 700 540 730 570 c 128,-1,148
 760 600 760 600 800 600 c 128,-1,149
 840 600 840 600 870 570 c 128,-1,150
 900 540 900 540 900 500 c 128,-1,151
 900 460 900 460 870 430 c 128,-1,152
 840 400 840 400 800 400 c 256,144,145
1000 400 m 256,153,154
 960 400 960 400 930 430 c 128,-1,155
 900 460 900 460 900 500 c 128,-1,156
 900 540 900 540 930 570 c 128,-1,157
 960 600 960 600 1000 600 c 128,-1,158
 1040 600 1040 600 1070 570 c 128,-1,159
 1100 540 1100 540 1100 500 c 128,-1,160
 1100 460 1100 460 1070 430 c 128,-1,161
 1040 400 1040 400 1000 400 c 256,153,154
400 600 m 256,162,163
 360 600 360 600 330 630 c 128,-1,164
 300 660 300 660 300 700 c 128,-1,165
 300 740 300 740 330 770 c 128,-1,166
 360 800 360 800 400 800 c 128,-1,167
 440 800 440 800 470 770 c 128,-1,168
 500 740 500 740 500 700 c 128,-1,169
 500 660 500 660 470 630 c 128,-1,170
 440 600 440 600 400 600 c 256,162,163
400 800 m 256,171,172
 360 800 360 800 330 830 c 128,-1,173
 300 860 300 860 300 900 c 128,-1,174
 300 940 300 940 330 970 c 128,-1,175
 360 1000 360 1000 400 1000 c 128,-1,176
 440 1000 440 1000 470 970 c 128,-1,177
 500 940 500 940 500 900 c 128,-1,178
 500 860 500 860 470 830 c 128,-1,179
 440 800 440 800 400 800 c 256,171,172
400 1000 m 256,180,181
 360 1000 360 1000 330 1030 c 128,-1,182
 300 1060 300 1060 300 1100 c 128,-1,183
 300 1140 300 1140 330 1170 c 128,-1,184
 360 1200 360 1200 400 1200 c 128,-1,185
 440 1200 440 1200 470 1170 c 128,-1,186
 500 1140 500 1140 500 1100 c 128,-1,187
 500 1060 500 1060 470 1030 c 128,-1,188
 440 1000 440 1000 400 1000 c 256,180,181
400 1200 m 256,189,190
 360 1200 360 1200 330 1230 c 128,-1,191
 300 1260 300 1260 300 1300 c 128,-1,192
 300 1340 300 1340 330 1370 c 128,-1,193
 360 1400 360 1400 400 1400 c 128,-1,194
 440 1400 440 1400 470 1370 c 128,-1,195
 500 1340 500 1340 500 1300 c 128,-1,196
 500 1260 500 1260 470 1230 c 128,-1,197
 440 1200 440 1200 400 1200 c 256,189,190
600 600 m 256,198,199
 560 600 560 600 530 630 c 128,-1,200
 500 660 500 660 500 700 c 128,-1,201
 500 740 500 740 530 770 c 128,-1,202
 560 800 560 800 600 800 c 128,-1,203
 640 800 640 800 670 770 c 128,-1,204
 700 740 700 740 700 700 c 128,-1,205
 700 660 700 660 670 630 c 128,-1,206
 640 600 640 600 600 600 c 256,198,199
800 600 m 256,207,208
 760 600 760 600 730 630 c 128,-1,209
 700 660 700 660 700 700 c 128,-1,210
 700 740 700 740 730 770 c 128,-1,211
 760 800 760 800 800 800 c 128,-1,212
 840 800 840 800 870 770 c 128,-1,213
 900 740 900 740 900 700 c 128,-1,214
 900 660 900 660 870 630 c 128,-1,215
 840 600 840 600 800 600 c 256,207,208
1000 600 m 256,216,217
 960 600 960 600 930 630 c 128,-1,218
 900 660 900 660 900 700 c 128,-1,219
 900 740 900 740 930 770 c 128,-1,220
 960 800 960 800 1000 800 c 128,-1,221
 1040 800 1040 800 1070 770 c 128,-1,222
 1100 740 1100 740 1100 700 c 128,-1,223
 1100 660 1100 660 1070 630 c 128,-1,224
 1040 600 1040 600 1000 600 c 256,216,217
600 800 m 256,225,226
 560 800 560 800 530 830 c 128,-1,227
 500 860 500 860 500 900 c 128,-1,228
 500 940 500 940 530 970 c 128,-1,229
 560 1000 560 1000 600 1000 c 128,-1,230
 640 1000 640 1000 670 970 c 128,-1,231
 700 940 700 940 700 900 c 128,-1,232
 700 860 700 860 670 830 c 128,-1,233
 640 800 640 800 600 800 c 256,225,226
600 1000 m 256,234,235
 560 1000 560 1000 530 1030 c 128,-1,236
 500 1060 500 1060 500 1100 c 128,-1,237
 500 1140 500 1140 530 1170 c 128,-1,238
 560 1200 560 1200 600 1200 c 128,-1,239
 640 1200 640 1200 670 1170 c 128,-1,240
 700 1140 700 1140 700 1100 c 128,-1,241
 700 1060 700 1060 670 1030 c 128,-1,242
 640 1000 640 1000 600 1000 c 256,234,235
600 1200 m 256,243,244
 560 1200 560 1200 530 1230 c 128,-1,245
 500 1260 500 1260 500 1300 c 128,-1,246
 500 1340 500 1340 530 1370 c 128,-1,247
 560 1400 560 1400 600 1400 c 128,-1,248
 640 1400 640 1400 670 1370 c 128,-1,249
 700 1340 700 1340 700 1300 c 128,-1,250
 700 1260 700 1260 670 1230 c 128,-1,251
 640 1200 640 1200 600 1200 c 256,243,244
800 800 m 256,252,253
 760 800 760 800 730 830 c 128,-1,254
 700 860 700 860 700 900 c 128,-1,255
 700 940 700 940 730 970 c 128,-1,256
 760 1000 760 1000 800 1000 c 128,-1,257
 840 1000 840 1000 870 970 c 128,-1,258
 900 940 900 940 900 900 c 128,-1,259
 900 860 900 860 870 830 c 128,-1,260
 840 800 840 800 800 800 c 256,252,253
800 1000 m 256,261,262
 760 1000 760 1000 730 1030 c 128,-1,263
 700 1060 700 1060 700 1100 c 128,-1,264
 700 1140 700 1140 730 1170 c 128,-1,265
 760 1200 760 1200 800 1200 c 128,-1,266
 840 1200 840 1200 870 1170 c 128,-1,267
 900 1140 900 1140 900 1100 c 128,-1,268
 900 1060 900 1060 870 1030 c 128,-1,269
 840 1000 840 1000 800 1000 c 256,261,262
800 1200 m 256,270,271
 760 1200 760 1200 730 1230 c 128,-1,272
 700 1260 700 1260 700 1300 c 128,-1,273
 700 1340 700 1340 730 1370 c 128,-1,274
 760 1400 760 1400 800 1400 c 128,-1,275
 840 1400 840 1400 870 1370 c 128,-1,276
 900 1340 900 1340 900 1300 c 128,-1,277
 900 1260 900 1260 870 1230 c 128,-1,278
 840 1200 840 1200 800 1200 c 256,270,271
1000 800 m 256,279,280
 960 800 960 800 930 830 c 128,-1,281
 900 860 900 860 900 900 c 128,-1,282
 900 940 900 940 930 970 c 128,-1,283
 960 1000 960 1000 1000 1000 c 128,-1,284
 1040 1000 1040 1000 1070 970 c 128,-1,285
 1100 940 1100 940 1100 900 c 128,-1,286
 1100 860 1100 860 1070 830 c 128,-1,287
 1040 800 1040 800 1000 800 c 256,279,280
1000 1000 m 256,288,289
 960 1000 960 1000 930 1030 c 128,-1,290
 900 1060 900 1060 900 1100 c 128,-1,291
 900 1140 900 1140 930 1170 c 128,-1,292
 960 1200 960 1200 1000 1200 c 128,-1,293
 1040 1200 1040 1200 1070 1170 c 128,-1,294
 1100 1140 1100 1140 1100 1100 c 128,-1,295
 1100 1060 1100 1060 1070 1030 c 128,-1,296
 1040 1000 1040 1000 1000 1000 c 256,288,289
1000 1200 m 256,297,298
 960 1200 960 1200 930 1230 c 128,-1,299
 900 1260 900 1260 900 1300 c 128,-1,300
 900 1340 900 1340 930 1370 c 128,-1,301
 960 1400 960 1400 1000 1400 c 128,-1,302
 1040 1400 1040 1400 1070 1370 c 128,-1,303
 1100 1340 1100 1340 1100 1300 c 128,-1,304
 1100 1260 1100 1260 1070 1230 c 128,-1,305
 1040 1200 1040 1200 1000 1200 c 256,297,298
200 0 m 256,306,307
 160 0 160 0 130 30 c 128,-1,308
 100 60 100 60 100 100 c 128,-1,309
 100 140 100 140 130 170 c 128,-1,310
 160 200 160 200 200 200 c 128,-1,311
 240 200 240 200 270 170 c 128,-1,312
 300 140 300 140 300 100 c 128,-1,313
 300 60 300 60 270 30 c 128,-1,314
 240 0 240 0 200 0 c 256,306,307
EndSplineSet
EndChar
StartChar: glyph48
Encoding: 65539 -1 48
Width: 1200
GlyphClass: 1
Flags: W
LayerCount: 2
Fore
SplineSet
400 0 m 256,0,1
 360 0 360 0 330 30 c 128,-1,2
 300 60 300 60 300 100 c 128,-1,3
 300 140 300 140 330 170 c 128,-1,4
 360 200 360 200 400 200 c 128,-1,5
 440 200 440 200 470 170 c 128,-1,6
 500 140 500 140 500 100 c 128,-1,7
 500 60 500 60 470 30 c 128,-1,8
 440 0 440 0 400 0 c 256,0,1
600 0 m 256,9,10
 560 0 560 0 530 30 c 128,-1,11
 500 60 500 60 500 100 c 128,-1,12
 500 140 500 140 530 170 c 128,-1,13
 560 200 560 200 600 200 c 128,-1,14
 640 200 640 200 670 170 c 128,-1,15
 700 140 700 140 700 100 c 128,-1,16
 700 60 700 60 670 30 c 128,-1,17
 640 0 640 0 600 0 c 256,9,10
800 0 m 256,18,19
 760 0 760 0 730 30 c 128,-1,20
 700 60 700 60 700 100 c 128,-1,21
 700 140 700 140 730 170 c 128,-1,22
 760 200 760 200 800 200 c 128,-1,23
 840 200 840 200 870 170 c 128,-1,24
 900 140 900 140 900 100 c 128,-1,25
 900 60 900 60 870 30 c 128,-1,26
 840 0 840 0 800 0 c 256,18,19
1000 0 m 256,27,28
 960 0 960 0 930 30 c 128,-1,29
 900 60 900 60 900 100 c 128,-1,30
 900 140 900 140 930 170 c 128,-1,31
 960 200 960 200 1000 200 c 128,-1,32
 1040 200 1040 200 1070 170 c 128,-1,33
 1100 140 1100 140 1100 100 c 128,-1,34
 1100 60 1100 60 1070 30 c 128,-1,35
 1040 0 1040 0 1000 0 c 256,27,28
200 200 m 256,36,37
 160 200 160 200 130 230 c 128,-1,38
 100 260 100 260 100 300 c 128,-1,39
 100 340 100 340 130 370 c 128,-1,40
 160 400 160 400 200 400 c 128,-1,41
 240 400 240 400 270 370 c 128,-1,42
 300 340 300 340 300 300 c 128,-1,43
 300 260 300 260 270 230 c 128,-1,44
 240 200 240 200 200 200 c 256,36,37
600 200 m 256,45,46
 560 200 560 200 530 230 c 128,-1,47
 500 260 500 260 500 300 c 128,-1,48
 500 340 500 340 530 370 c 128,-1,49
 560 400 560 400 600 400 c 128,-1,50
 640 400 640 400 670 370 c 128,-1,51
 700 340 700 340 700 300 c 128,-1,52
 700 260 700 260 670 230 c 128,-1,53
 640 200 640 200 600 200 c 256,45,46
1000 200 m 256,54,55
 960 200 960 200 930 230 c 128,-1,56
 900 260 900 260 900 300 c 128,-1,57
 900 340 900 340 930 370 c 128,-1,58
 960 400 960 400 1000 400 c 128,-1,59
 1040 400 1040 400 1070 370 c 128,-1,60
 1100 340 1100 340 1100 300 c 128,-1,61
 1100 260 1100 260 1070 230 c 128,-1,62
 1040 200 1040 200 1000 200 c 256,54,55
200 1000 m 256,63,64
 160 1000 160 1000 130 1030 c 128,-1,65
 100 1060 100 1060 100 1100 c 128,-1,66
 100 1140 100 1140 130 1170 c 128,-1,67
 160 1200 160 1200 200 1200 c 128,-1,68
 240 1200 240 1200 270 1170 c 128,-1,69
 300 1140 300 1140 300 1100 c 128,-1,70
 300 1060 300 1060 270 1030 c 128,-1,71
 240 1000 240 1000 200 1000 c 256,63,64
200 1200 m 256,72,73
 160 1200 160 1200 130 1230 c 128,-1,74
 100 1260 100 1260 100 1300 c 128,-1,75
 100 1340 100 1340 130 1370 c 128,-1,76
 160 1400 160 1400 200 1400 c 128,-1,77
 240 1400 240 1400 270 1370 c 128,-1,78
 300 1340 300 1340 300 1300 c 128,-1,79
 300 1260 300 1260 270 1230 c 128,-1,80
 240 1200 240 1200 200 1200 c 256,72,73
1000 400 m 256,81,82
 960 400 960 400 930 430 c 128,-1,83
 900 460 900 460 900 500 c 128,-1,84
 900 540 900 540 930 570 c 128,-1,85
 960 600 960 600 1000 600 c 128,-1,86
 1040 600 1040 600 1070 570 c 128,-1,87
 1100 540 1100 540 1100 500 c 128,-1,88
 1100 460 1100 460 1070 430 c 128,-1,89
 1040 400 1040 400 1000 400 c 256,81,82
400 1200 m 256,90,91
 360 1200 360 1200 330 1230 c 128,-1,92
 300 1260 300 1260 300 1300 c 128,-1,93
 300 1340 300 1340 330 1370 c 128,-1,94
 360 1400 360 1400 400 1400 c 128,-1,95
 440 1400 440 1400 470 1370 c 128,-1,96
 500 1340 500 1340 500 1300 c 128,-1,97
 500 1260 500 1260 470 1230 c 128,-1,98
 440 1200 440 1200 400 1200 c 256,90,91
800 600 m 256,99,100
 760 600 760 600 730 630 c 128,-1,101
 700 660 700 660 700 700 c 128,-1,102
 700 740 700 740 730 770 c 128,-1,103
 760 800 760 800 800 800 c 128,-1,104
 840 800 840 800 870 770 c 128,-1,105
 900 740 900 740 900 700 c 128,-1,106
 900 660 900 660 870 630 c 128,-1,107
 840 600 840 600 800 600 c 256,99,100
1000 600 m 256,108,109
 960 600 960 600 930 630 c 128,-1,110
 900 660 900 660 900 700 c 128,-1,111
 900 740 900 740 930 770 c 128,-1,112
 960 800 960 800 1000 800 c 128,-1,113
 1040 800 1040 800 1070 770 c 128,-1,114
 1100 740 1100 740 1100 700 c 128,-1,115
 1100 660 1100 660 1070 630 c 128,-1,116
 1040 600 1040 600 1000 600 c 256,108,109
600 800 m 256,117,118
 560 800 560 800 530 830 c 128,-1,119
 500 860 500 860 500 900 c 128,-1,120
 500 940 500 940 530 970 c 128,-1,121
 560 1000 560 1000 600 1000 c 128,-1,122
 640 1000 640 1000 670 970 c 128,-1,123
 700 940 700 940 700 900 c 128,-1,124
 700 860 700 860 670 830 c 128,-1,125
 640 800 640 800 600 800 c 256,117,118
800 1200 m 256,126,127
 760 1200 760 1200 730 1230 c 128,-1,128
 700 1260 700 1260 700 1300 c 128,-1,129
 700 1340 700 1340 730 1370 c 128,-1,130
 760 1400 760 1400 800 1400 c 128,-1,131
 840 1400 840 1400 870 1370 c 128,-1,132
 900 1340 900 1340 900 1300 c 128,-1,133
 900 1260 900 1260 870 1230 c 128,-1,134
 840 1200 840 1200 800 1200 c 256,126,127
1000 800 m 256,135,136
 960 800 960 800 930 830 c 128,-1,137
 900 860 900 860 900 900 c 128,-1,138
 900 940 900 940 930 970 c 128,-1,139
 960 1000 960 1000 1000 1000 c 128,-1,140
 1040 1000 1040 1000 1070 970 c 128,-1,141
 1100 940 1100 940 1100 900 c 128,-1,142
 1100 860 1100 860 1070 830 c 128,-1,143
 1040 800 1040 800 1000 800 c 256,135,136
1000 1000 m 256,144,145
 960 1000 960 1000 930 1030 c 128,-1,146
 900 1060 900 1060 900 1100 c 128,-1,147
 900 1140 900 1140 930 1170 c 128,-1,148
 960 1200 960 1200 1000 1200 c 128,-1,149
 1040 1200 1040 1200 1070 1170 c 128,-1,150
 1100 1140 1100 1140 1100 1100 c 128,-1,151
 1100 1060 1100 1060 1070 1030 c 128,-1,152
 1040 1000 1040 1000 1000 1000 c 256,144,145
1000 1200 m 256,153,154
 960 1200 960 1200 930 1230 c 128,-1,155
 900 1260 900 1260 900 1300 c 128,-1,156
 900 1340 900 1340 930 1370 c 128,-1,157
 960 1400 960 1400 1000 1400 c 128,-1,158
 1040 1400 1040 1400 1070 1370 c 128,-1,159
 1100 1340 1100 1340 1100 1300 c 128,-1,160
 1100 1260 1100 1260 1070 1230 c 128,-1,161
 1040 1200 1040 1200 1000 1200 c 256,153,154
200 0 m 256,162,163
 160 0 160 0 130 30 c 128,-1,164
 100 60 100 60 100 100 c 128,-1,165
 100 140 100 140 130 170 c 128,-1,166
 160 200 160 200 200 200 c 128,-1,167
 240 200 240 200 270 170 c 128,-1,168
 300 140 300 140 300 100 c 128,-1,169
 300 60 300 60 270 30 c 128,-1,170
 240 0 240 0 200 0 c 256,162,163
EndSplineSet
EndChar
StartChar: glyph74
Encoding: 65540 -1 74
Width: 1200
GlyphClass: 1
Flags: W
LayerCount: 2
Fore
SplineSet
400 0 m 256,0,1
 360 0 360 0 330 30 c 128,-1,2
 300 60 300 60 300 100 c 128,-1,3
 300 140 300 140 330 170 c 128,-1,4
 360 200 360 200 400 200 c 128,-1,5
 440 200 440 200 470 170 c 128,-1,6
 500 140 500 140 500 100 c 128,-1,7
 500 60 500 60 470 30 c 128,-1,8
 440 0 440 0 400 0 c 256,0,1
600 0 m 256,9,10
 560 0 560 0 530 30 c 128,-1,11
 500 60 500 60 500 100 c 128,-1,12
 500 140 500 140 530 170 c 128,-1,13
 560 200 560 200 600 200 c 128,-1,14
 640 200 640 200 670 170 c 128,-1,15
 700 140 700 140 700 100 c 128,-1,16
 700 60 700 60 670 30 c 128,-1,17
 640 0 640 0 600 0 c 256,9,10
800 0 m 256,18,19
 760 0 760 0 730 30 c 128,-1,20
 700 60 700 60 700 100 c 128,-1,21
 700 140 700 140 730 170 c 128,-1,22
 760 200 760 200 800 200 c 128,-1,23
 840 200 840 200 870 170 c 128,-1,24
 900 140 900 140 900 100 c 128,-1,25
 900 60 900 60 870 30 c 128,-1,26
 840 0 840 0 800 0 c 256,18,19
1000 0 m 256,27,28
 960 0 960 0 930 30 c 128,-1,29
 900 60 900 60 900 100 c 128,-1,30
 900 140 900 140 930 170 c 128,-1,31
 960 200 960 200 1000 200 c 128,-1,32
 1040 200 1040 200 1070 170 c 128,-1,33
 1100 140 1100 140 1100 100 c 128,-1,34
 1100 60 1100 60 1070 30 c 128,-1,35
 1040 0 1040 0 1000 0 c 256,27,28
200 200 m 256,36,37
 160 200 160 200 130 230 c 128,-1,38
 100 260 100 260 100 300 c 128,-1,39
 100 340 100 340 130 370 c 128,-1,40
 160 400 160 400 200 400 c 128,-1,41
 240 400 240 400 270 370 c 128,-1,42
 300 340 300 340 300 300 c 128,-1,43
 300 260 300 260 270 230 c 128,-1,44
 240 200 240 200 200 200 c 256,36,37
1000 200 m 256,45,46
 960 200 960 200 930 230 c 128,-1,47
 900 260 900 260 900 300 c 128,-1,48
 900 340 900 340 930 370 c 128,-1,49
 960 400 960 400 1000 400 c 128,-1,50
 1040 400 1040 400 1070 370 c 128,-1,51
 1100 340 1100 340 1100 300 c 128,-1,52
 1100 260 1100 260 1070 230 c 128,-1,53
 1040 200 1040 200 1000 200 c 256,45,46
200 800 m 256,54,55
 160 800 160 800 130 830 c 128,-1,56
 100 860 100 860 100 900 c 128,-1,57
 100 940 100 940 130 970 c 128,-1,58
 160 1000 160 1000 200 1000 c 128,-1,59
 240 1000 240 1000 270 970 c 128,-1,60
 300 940 300 940 300 900 c 128,-1,61
 300 860 300 860 270 830 c 128,-1,62
 240 800 240 800 200 800 c 256,54,55
200 600 m 256,63,64
 160 600 160 600 130 630 c 128,-1,65
 100 660 100 660 100 700 c 128,-1,66
 100 740 100 740 130 770 c 128,-1,67
 160 800 160 800 200 800 c 128,-1,68
 240 800 240 800 270 770 c 128,-1,69
 300 740 300 740 300 700 c 128,-1,70
 300 660 300 660 270 630 c 128,-1,71
 240 600 240 600 200 600 c 256,63,64
200 1200 m 256,72,73
 160 1200 160 1200 130 1230 c 128,-1,74
 100 1260 100 1260 100 1300 c 128,-1,75
 100 1340 100 1340 130 1370 c 128,-1,76
 160 1400 160 1400 200 1400 c 128,-1,77
 240 1400 240 1400 270 1370 c 128,-1,78
 300 1340 300 1340 300 1300 c 128,-1,79
 300 1260 300 1260 270 1230 c 128,-1,80
 240 1200 240 1200 200 1200 c 256,72,73
400 400 m 256,81,82
 360 400 360 400 330 430 c 128,-1,83
 300 460 300 460 300 500 c 128,-1,84
 300 540 300 540 330 570 c 128,-1,85
 360 600 360 600 400 600 c 128,-1,86
 440 600 440 600 470 570 c 128,-1,87
 500 540 500 540 500 500 c 128,-1,88
 500 460 500 460 470 430 c 128,-1,89
 440 400 440 400 400 400 c 256,81,82
400 -200 m 256,90,91
 360 -200 360 -200 330 -170 c 128,-1,92
 300 -140 300 -140 300 -100 c 128,-1,93
 300 -60 300 -60 330 -30 c 128,-1,94
 360 0 360 0 400 0 c 128,-1,95
 440 0 440 0 470 -30 c 128,-1,96
 500 -60 500 -60 500 -100 c 128,-1,97
 500 -140 500 -140 470 -170 c 128,-1,98
 440 -200 440 -200 400 -200 c 256,90,91
800 -200 m 256,99,100
 760 -200 760 -200 730 -170 c 128,-1,101
 700 -140 700 -140 700 -100 c 128,-1,102
 700 -60 700 -60 730 -30 c 128,-1,103
 760 0 760 0 800 0 c 128,-1,104
 840 0 840 0 870 -30 c 128,-1,105
 900 -60 900 -60 900 -100 c 128,-1,106
 900 -140 900 -140 870 -170 c 128,-1,107
 840 -200 840 -200 800 -200 c 256,99,100
400 800 m 256,108,109
 360 800 360 800 330 830 c 128,-1,110
 300 860 300 860 300 900 c 128,-1,111
 300 940 300 940 330 970 c 128,-1,112
 360 1000 360 1000 400 1000 c 128,-1,113
 440 1000 440 1000 470 970 c 128,-1,114
 500 940 500 940 500 900 c 128,-1,115
 500 860 500 860 470 830 c 128,-1,116
 440 800 440 800 400 800 c 256,108,109
1000 600 m 256,117,118
 960 600 960 600 930 630 c 128,-1,119
 900 660 900 660 900 700 c 128,-1,120
 900 740 900 740 930 770 c 128,-1,121
 960 800 960 800 1000 800 c 128,-1,122
 1040 800 1040 800 1070 770 c 128,-1,123
 1100 740 1100 740 1100 700 c 128,-1,124
 1100 660 1100 660 1070 630 c 128,-1,125
 1040 600 1040 600 1000 600 c 256,117,118
600 1200 m 256,126,127
 560 1200 560 1200 530 1230 c 128,-1,128
 500 1260 500 1260 500 1300 c 128,-1,129
 500 1340 500 1340 530 1370 c 128,-1,130
 560 1400 560 1400 600 1400 c 128,-1,131
 640 1400 640 1400 670 1370 c 128,-1,132
 700 1340 700 1340 700 1300 c 128,-1,133
 700 1260 700 1260 670 1230 c 128,-1,134
 640 1200 640 1200 600 1200 c 256,126,127
800 800 m 256,135,136
 760 800 760 800 730 830 c 128,-1,137
 700 860 700 860 700 900 c 128,-1,138
 700 940 700 940 730 970 c 128,-1,139
 760 1000 760 1000 800 1000 c 128,-1,140
 840 1000 840 1000 870 970 c 128,-1,141
 900 940 900 940 900 900 c 128,-1,142
 900 860 900 860 870 830 c 128,-1,143
 840 800 840 800 800 800 c 256,135,136
1000 800 m 256,144,145
 960 800 960 800 930 830 c 128,-1,146
 900 860 900 860 900 900 c 128,-1,147
 900 940 900 940 930 970 c 128,-1,148
 960 1000 960 1000 1000 1000 c 128,-1,149
 1040 1000 1040 1000 1070 970 c 128,-1,150
 1100 940 1100 940 1100 900 c 128,-1,151
 1100 860 1100 860 1070 830 c 128,-1,152
 1040 800 1040 800 1000 800 c 256,144,145
200 0 m 256,153,154
 160 0 160 0 130 30 c 128,-1,155
 100 60 100 60 100 100 c 128,-1,156
 100 140 100 140 130 170 c 128,-1,157
 160 200 160 200 200 200 c 128,-1,158
 240 200 240 200 270 170 c 128,-1,159
 300 140 300 140 300 100 c 128,-1,160
 300 60 300 60 270 30 c 128,-1,161
 240 0 240 0 200 0 c 256,153,154
EndSplineSet
EndChar
